<?xml version="1.0" encoding="utf-8"?>
<!-- Generator: Adobe Illustrator 21.0.2, SVG Export Plug-In . SVG Version: 6.00 Build 0)  -->
<svg version="1.1" id="Calque_1" xmlns="http://www.w3.org/2000/svg" xmlns:xlink="http://www.w3.org/1999/xlink" x="0px" y="0px"
	 viewBox="0 0 1500.9 1501.8" style="enable-background:new 0 0 1500.9 1501.8;" xml:space="preserve">
<style type="text/css">
	.st0{fill:#FFFFFF;}
	.st1{fill:none;}
</style>
<g>
	<path class="st0" d="M1500.9,1501.8c-500.3,0-1000.5,0-1500.9,0C0,1001.3,0,500.7,0,0c500.2,0,1000.6,0,1500.9,0
		C1500.9,500.5,1500.9,1001.1,1500.9,1501.8z M851.9,146.9c-1.4,7.2-2.7,14.1-4,20.8c-13.9-1.8-27.2-3.6-40.9-5.4
		c0.4-6.9,0.9-13.8,1.3-21.1c-3.3,0-6.1,0-9.4,0c-0.7,6.7-1.4,13.5-2.1,20.3c-8-0.4-15.4-0.6-22.9-1.1c-3.6-0.2-8.5,0.5-10.4-1.4
		c-2.3-2.3-2-7.1-2.8-10.8c-0.2-1-0.5-1.9-0.7-2.9c-3.1-15.7-6.3-31.4-9.6-48.2c-4.3,21.6-8.4,42.1-12.5,62.6
		c-11.6,0.6-22.6,1.2-33.8,1.8c-0.8-7.2-1.5-13.9-2.2-20.3c-3.7,0-6.8,0-9.9,0c0.7,7.3,1.4,14.1,2,21c-13.9,1.8-27.2,3.6-41,5.4
		c-1.4-6.9-2.8-13.9-4.2-21.1c-1.6,0.5-2.3,0.8-3.1,1c-6.6,1.4-6.6,1.4-5.2,7.9c0.9,4.5,1.6,9.1,2.4,13.9c-13.6,3-27,5.9-40.5,8.8
		c-2-7.1-3.7-13.5-5.4-19.7c-1.7,0.2-2.8,0.3-3.9,0.5c-4.6,0.6-6.1,2.7-4.3,7.4s2.7,9.7,4,14.5c-11.8,3.8-23.3,7-34.4,11.1
		c-4.5,1.6-5.8,0-7-3.6c-1.7-4.9-3.5-9.8-5.3-14.7c-3.4,1.3-6.2,2.3-9.2,3.4c2.4,6.8,4.7,13.2,7.1,19.8c-13,5.4-25.5,10.6-38.2,15.9
		c-3-6.4-5.9-12.5-9-18.9c-3.1,1.5-6,2.8-8.9,4.2c3.1,6.7,5.9,12.9,8.7,19c-12.5,6.5-24.5,12.7-36.6,19.1c-3.6-6.1-7.1-12-10.7-18.1
		c-3.1,1.8-5.6,3.3-8.4,5c3.6,6.3,6.9,12.3,10.3,18.1c-10.9,7.1-21.6,13.9-32.1,20.9c-2.4,1.6-3.4,0.6-4.7-1.3
		c-3.2-4.8-6.6-9.4-10.2-14.4c-2.9,2.1-5.4,3.9-8.1,5.7c3.3,4.8,6.2,9.4,9.6,13.7c2.2,2.8,1.9,4.3-0.9,6.4
		c-8.7,6.4-17.3,12.9-25.7,19.7c-2.9,2.3-4.5,2.4-6.8-0.6c-3.3-4.4-7.1-8.5-10.7-12.9c-2.8,2.4-5.1,4.4-7.5,6.5
		c4.6,5.6,8.9,10.8,13.4,16.2c-10.3,9.4-20.3,18.7-31.6,29c-4.9-5.4-9.5-10.5-14.4-15.8c-2.3,2.4-4.4,4.6-7.2,7.7
		c5.2,5,10.2,9.6,15.3,14.4c-8.8,9.7-17.4,19.3-26.3,28.7c-0.5,0.6-3.1,0.1-4-0.7c-4.6-3.5-8.9-7.4-13.5-11.2
		c-2.2,2.5-4.2,4.9-6.5,7.5c5.4,4.6,10.8,9.2,16.1,13.7c-8.6,11.2-16.8,21.9-25.2,32.8c-5.9-4-11.4-7.9-17.3-11.9
		c-2.1,2.9-3.9,5.4-5.8,8c5.9,4.2,11.5,8.2,17.2,12.2c-7.5,11.7-14.8,23.1-22.2,34.8c-6.3-3.6-12.2-7-18.3-10.4
		c-1.7,3.1-3.2,5.7-4.6,8.2c0.4,0.5,0.5,0.7,0.6,0.8c3.3,2,6.6,3.9,9.8,5.8c7.5,4.4,7.5,4.4,3.5,11.9c-5.1,9.7-10.1,19.4-15.2,29.1
		c-6.5-3-12.8-5.8-19.1-8.7c-1.4,3.1-2.6,5.8-4.1,8.9c6.5,3.1,12.6,6.1,18.8,9c-5.4,13-10.5,25.5-15.8,38.2
		c-6.7-2.4-13.1-4.6-19.8-7c-1.1,3.4-2.1,6.2-3.1,9.2c6.8,2.6,13.1,4.9,19.3,7.2c-3.8,12.7-7.5,25-11.4,37.3
		c-0.3,0.9-2.7,1.8-3.8,1.5c-5.8-1.3-11.4-3-17.5-4.7c-0.8,3.3-1.5,6.3-2.3,9.5c6.9,2,13.6,3.9,20.1,5.8c-3,13.7-5.9,26.6-8.8,40.1
		c-7-1.1-13.9-2.2-21-3.3c-0.5,3.5-0.9,6.6-1.2,9.6c7,1.4,13.5,2.6,20.3,3.9c-1.8,13.7-3.5,27.1-5.3,40.7c-7.3-0.5-14-0.9-20.8-1.4
		c-0.5,3.6-0.9,6.6-1.3,9.7c6,0.5,11.4,1.2,16.9,1.3c3.3,0.1,4.4,1.2,4.2,4.4c-0.5,9.1-0.7,18.3-1.2,27.4c-0.1,1.1-1.6,2.9-2.7,3.1
		c-11.6,2.5-23.3,4.7-35,7.1c-7.4,1.5-14.8,3-23.1,4.7c1.3,0.8,1.7,1.1,2.1,1.2c15.7,3.1,31.4,6.4,47.2,9.1
		c11.4,2,11.4,1.7,11.6,13.2c0.1,3.5,0.6,6.9,0.7,10.4c0.1,4.3,0,8.5,0,12.9c-7.1,0.6-13.8,1.2-20.7,1.9c0.5,3.5,0.9,6.5,1.4,9.8
		c6.9-0.6,13.5-1.2,20.6-1.9c1.8,13.9,3.6,27.5,5.3,41.3c-7.1,1.3-13.7,2.6-20.6,3.9c0.6,3.3,1.1,6.2,1.6,9.3
		c7.1-1.1,14-2.1,20.7-3.1c3,12.9,5.6,24.9,8.5,36.7c0.8,3.1-0.1,4.1-3.1,4.7c-5.6,1.2-11,2.9-16.6,4.4c0.9,3.3,1.7,6.1,2.5,9.3
		c5.5-1.4,10.8-2.6,16-4.3c3.3-1,4.9-0.4,5.6,3.1c0.8,3.9,2.1,7.6,3.3,11.4c2.5,8,5.1,15.9,7.8,24.1c-6.7,2.5-13,4.8-19.6,7.3
		c1.1,3.1,2.1,5.9,3.2,9c5.7-2,10.9-4,16.2-5.6c1.3-0.4,4,0.1,4.4,0.9c5,11.9,9.8,23.8,14.8,36.3c-6.2,2.9-12.2,5.8-18.7,8.9
		c1.4,3,2.7,5.7,4.1,8.7c6.6-3,12.7-5.8,19-8.6c6.5,12.4,12.8,24.6,19.2,36.8c-6.1,3.6-11.9,7-18,10.6c1.6,2.8,3.1,5.3,4.8,8.3
		c6.3-3.5,12.3-6.8,18.1-10c7.5,11.2,14.8,21.9,21.8,32.7c0.5,0.7-0.1,3-0.9,3.6c-5,3.7-10.2,7.1-15.4,10.7c1.9,2.6,3.7,5.1,5.6,7.8
		c4.5-3.2,8.7-6,12.7-9.2c3.2-2.6,5.6-2.8,7.9,1.1c2.1,3.5,4.8,6.7,7.3,10c4.9,6.4,9.7,12.8,14.8,19.4c-5.6,4.7-10.8,9.1-16.1,13.6
		c2.1,2.5,4,4.7,6,7.1c5.6-4.6,11-9,16.3-13.3c8.6,9.3,16.7,18.4,25.2,27.2c2.7,2.8,2.5,4.4-0.1,6.8c-3.9,3.7-7.6,7.7-11.2,11.5
		c2.1,1.9,4.3,4,7.3,6.9c4.4-4.9,8.9-10,13.5-15.2c10.9,10,20.9,19.3,31,28.7c-4.6,5.6-8.9,10.8-13.4,16.2c2.6,2.2,4.8,4.1,7.4,6.3
		c3.8-4.6,7.3-9,11.1-13.1c1-1.1,3.8-1.9,4.6-1.3c10.3,7.7,20.5,15.7,30.8,23.7c-4,5.7-7.8,11.2-11.9,17.1c2.7,1.9,5.2,3.6,8,5.6
		c4.2-5.9,8.2-11.6,12.1-17c11.9,7.6,23.4,14.9,35,22.3c-3.5,6.2-6.8,12.1-10.3,18.2c3,1.7,5.5,3.1,8.4,4.7c3.6-6.2,7-12,10.5-17.9
		c12.3,6.4,24.3,12.6,36.8,19.2c-2.9,6.3-5.7,12.5-8.6,19c3.2,1.5,5.9,2.8,8.7,4.1c3.2-6.6,6.2-12.8,9.1-18.8
		c13,5.4,25.5,10.6,38.3,15.9c-2.3,6.5-4.6,13-7,19.6c3.2,1.2,6.1,2.2,9,3.3c2.6-6.8,4.9-13.1,7.3-19.5c13.5,4.3,26.5,8.4,39.6,12.5
		c-1.1,4.3-2.1,8.3-3,12.3c-1.8,7.8-1.8,7.8,5.9,10.1c0.3,0.1,0.6,0.1,1.1,0.2c1.8-6.5,3.6-13,5.6-19.9c13.8,3,27.2,5.9,40.7,8.9
		c-0.8,4.4-1.4,8.2-2.1,11.9c-1.6,8.7-1.6,8.7,6.8,10.1c0.3,0,0.6-0.1,1.2-0.1c1.3-6.6,2.6-13.4,3.9-20.2c14,1.8,27.4,3.6,41.2,5.4
		c-0.6,7.1-1.2,13.9-1.8,21.1c3.4,0,6.3,0,9.6,0c0.8-6.8,1.5-13.6,2.3-20.5c11.6,0.7,22.5,1.3,33.9,2c4.1,20.6,8.2,41.1,12.4,62.5
		c4.3-21.5,8.4-42,12.5-62.5c11.8-0.7,22.8-1.3,33.9-1.9c0.7,7.3,1.4,14,2,20.5c3.5,0,6.2,0,9.4,0c-0.5-7.4-0.9-14.4-1.3-21.2
		c14-1.8,27.3-3.6,41-5.4c1.3,7,2.6,13.7,3.9,20.5c1.3-0.3,2.1-0.5,2.9-0.5c6.5-0.6,6.5-0.6,5.4-6.9c-0.8-4.8-1.5-9.7-2.3-14.7
		c13.7-3,27-6,40.5-9c1.8,6.7,3.6,13.2,5.5,20.1c1.6-0.4,2.8-0.9,4-1c5-0.2,5.5-2.7,4.1-6.9c-1.6-4.8-2.7-9.8-4-14.6
		c12.3-4,24.3-7.9,36.2-11.7c2.4-0.8,4-0.4,4.9,2.4c1.7,5.5,3.9,10.8,6,16.3c3.3-1.3,6.1-2.4,8.9-3.5c-2.4-6.9-4.7-13.3-6.9-19.6
		c13.1-5.4,25.6-10.6,38.3-15.9c3.1,6.4,6,12.6,9,19c3-1.5,5.6-2.8,8.7-4.3c-2.2-4.7-4.1-9.3-6.4-13.6c-2.2-4-2.2-6.5,2.7-8.1
		c3-1,5.7-2.7,8.5-4.2c7.7-4,15.4-8.1,23.3-12.3c3.7,6.2,7.1,12,10.7,18.1c3.1-1.8,5.7-3.4,8.3-5c-3.6-6.4-7-12.2-10.3-18
		c11.9-7.6,23.3-14.9,35.1-22.3c3.9,5.6,7.9,11.2,12.1,17.1c2.9-2.1,5.5-3.8,8-5.6c-4.2-6-8.1-11.5-12-17.1
		c10.4-8.1,20.5-16.1,30.9-23.8c0.8-0.6,3.4,0.2,4.3,1.1c3.9,4.2,7.5,8.8,11.4,13.4c2.7-2.3,5-4.3,7.4-6.4
		c-4.6-5.5-9-10.8-13.4-16.1c10.5-9.7,20.4-18.8,31.3-28.9c4.8,5.3,9.5,10.4,13.9,15.2c2.6-2.4,4.9-4.4,7.2-6.4
		c-5.1-5.2-10-10.1-14.9-15c9.3-10.2,18.6-20.5,28.1-30.9c5.5,4.5,10.8,8.9,16.4,13.4c2.1-2.5,4-4.9,5.8-7.2
		c-4.8-4.1-9.3-7.8-13.5-11.8c-0.8-0.8-1.2-3.2-0.6-4c4.3-5.9,9-11.5,13.4-17.3c3.4-4.4,6.8-8.9,10.3-13.5c6,4.1,11.6,7.9,17.3,11.9
		c2-2.8,3.8-5.3,5.6-7.8c-5.9-4.2-11.5-8.2-17.2-12.3c7.6-11.8,14.9-23.2,22.4-34.9c6.2,3.5,12.1,6.8,18.2,10.2
		c1.7-2.9,3.3-5.5,4.9-8.3c-6.3-3.7-12.3-7.2-18.1-10.7c6.5-12.5,12.8-24.5,19.2-36.7c6.4,2.9,12.7,5.7,19.1,8.5
		c1.4-3.2,2.6-5.8,3.9-8.8c-5.4-2.5-10.5-4.9-15.6-7.2c-2.3-1-3.3-2.1-2-4.9c4.6-10.5,8.8-21.1,13.1-31.7c1.1-2.7,2.4-3.5,5.3-2.3
		c5.1,2.1,10.5,3.8,16,5.8c1.2-3.3,2.2-6,3.3-9c-6.8-2.6-13.2-5-19.5-7.4c4.2-13.4,8.2-26.2,12.4-39.5c6.8,1.7,13.5,3.4,20.3,5.2
		c0.8-3.2,1.6-6.2,2.5-9.3c-5.8-1.5-11.4-3.1-17-4.4c-2.9-0.6-3.3-1.9-2.6-4.6c2.9-12,5.6-24.1,8.5-36.8c6.7,1,13.5,2.1,20.6,3.2
		c0.6-3.2,1.1-6.2,1.6-9.3c-7.1-1.3-13.6-2.6-20.3-3.9c1.5-13.2,3-25.8,4.5-38.5c0.3-2.7,1.9-2.9,4.2-2.6c5.7,0.7,11.4,1.2,17.2,1.7
		c0.3-3.6,0.5-6.5,0.8-9.8c-7-0.6-13.7-1.3-20.7-1.9c0.5-11.6,1-22.8,1.5-34c20.3-4.1,40.3-8.1,60.2-12.1
		c-19.1-4.7-38.1-8.4-57-12.4c-1.4-0.3-3.3-2.2-3.5-3.5c-0.7-5.9-0.9-11.9-1.1-17.9c-0.2-4.4,0-8.9,0-13.4
		c7.1-0.6,13.6-1.1,20.3-1.6c-0.2-3.3-0.4-6.3-0.6-9.6c-6.2,0.5-12.1,0.3-17.7,1.5c-3.8,0.8-3.8-0.8-4.1-3.4
		c-0.5-5.4-1.2-10.8-1.8-16.2c-0.8-7.1-1.6-14.3-2.4-21.4c7.2-1.4,13.7-2.7,20.2-4c-0.5-3.2-1-6.1-1.5-9c-7.1,1.1-14,2.1-20.7,3.1
		c-2.9-12.7-5.4-24.5-8.3-36.2c-0.8-3.1-0.8-4.8,3.1-5.5c5.4-1,10.7-2.8,16.2-4.3c-0.8-3.4-1.5-6.3-2.2-9.2
		c-5.6,1.6-10.9,3.2-16.3,4.6c-2.6,0.7-4.4,0.6-5.4-3c-2.3-8.9-5.3-17.6-8.1-26.3c-1-3.2-2-6.4-3.1-9.7c6.8-2.6,13.2-4.9,19.7-7.4
		c-0.8-1.8-1.7-3.1-1.9-4.5c-0.7-4-2.5-4.3-5.9-2.7c-3.7,1.7-7.7,2.8-11.5,4.4c-2.7,1.2-4.3,0.5-5.4-2.2c-4.3-10.6-8.5-21.3-13-31.8
		c-1.4-3.3-0.2-4.3,2.5-5.4c5-2.1,9.8-4.5,14.9-7c-1.4-3-2.5-5.6-3.8-8.4c-6.7,3-13,5.8-19.1,8.5c-6.6-12.6-13-24.9-19.4-37.2
		c6.3-3.6,12.2-7.1,18.2-10.5c-1.6-2.9-3.2-5.5-4.8-8.3c-5,3-9.9,6-14.8,8.9c-2.4,1.4-4.1,1.6-5.6-1.4c-1.4-2.9-3.3-5.7-5.1-8.4
		c-5-7.7-10-15.4-15.2-23.5c3.6-2.7,6.8-5.1,10.1-7.6c6.8-5.1,6.8-5.1,2.2-11.7c-0.2-0.2-0.6-0.3-0.9-0.4c-4.5,3.1-9.3,6.1-13.7,9.5
		c-2.5,2-4,1.6-5.7-0.7c-6.4-8.5-12.9-17.1-19.5-25.4c-2.8-3.5-3.9-6.1,0.8-8.8c2.1-1.2,3.9-3.1,5.7-4.7c6.3-5.4,6.3-5.4,0.5-11.5
		c-0.2-0.2-0.5-0.3-1-0.5c-4.1,3.5-8.2,7-12.3,10.5c-2.2,1.8-3.9,2.3-6.2-0.3c-7.6-8.5-15.4-16.8-23.1-25.2
		c-1.8-1.9-2.1-3.3,0.2-5.3c4.4-3.7,8.5-7.7,12.6-11.3c-2.8-3-4.8-5.2-7.4-8.1c-4.8,5.4-9.4,10.5-14,15.6
		c-10.3-9.4-19.8-18-29.3-26.6c-2.3-2.1-1.3-3.6,0.3-5.5c3.8-4.3,7.5-8.7,11.2-13c-2.6-2-5-3.9-7.5-5.9c-3.9,4.6-7.6,8.9-11.1,13.3
		c-1.8,2.2-3.1,2.3-5.3,0.5c-7.1-5.6-14.3-11.1-21.4-16.5c-2.9-2.2-6-4.4-9.1-6.7c4.2-6,8.2-11.6,12.2-17.4
		c-2.4-1.7-4.9-3.3-7.7-5.3c-3.2,4.6-6.3,9-9.3,13.5c-1.6,2.4-3.2,3.8-6,1.8c-10.5-7-20.9-13.9-31.7-21.1
		c3.3-5.9,6.7-11.8,10.3-18.1c-2.9-1.6-5.5-3.1-8.4-4.7c-3.6,6.1-7,11.9-10.6,17.9c-12.2-6.4-24.2-12.6-36.8-19.1
		c2.8-6.3,5.6-12.6,8.6-19.2c-3.1-1.4-5.9-2.6-8.7-3.8c-3.1,6.6-6.1,12.8-9,18.8c-13.2-5.4-25.8-10.5-38.6-15.8
		c2.4-6.7,4.6-13.1,7-19.8c-2.8-1-5.6-2.1-8.6-3.2c-1.1,2.8-2.1,5.6-3.1,8.3c-4,11.2-4,11.2-15.2,7.6c-0.3-0.1-0.7-0.1-1-0.2
		c-9.2-2.9-18.5-5.9-27.9-8.8c1.8-6.8,3.5-13.3,5.2-20c-1.5-0.5-2.7-0.8-3.7-1.2c-4.1-2-6.3-0.9-7.1,3.8c-0.9,4.8-2.5,9.6-3.9,14.8
		c-13.6-3-26.9-5.9-40.7-8.9c0.7-3.9,1.4-7.6,2-11.3C861.2,149.1,861.2,149.1,851.9,146.9z M85.5,774.8c0-0.5,0.1-1.1,0.1-1.6
		c-16.3-6.7-32.7-13.3-49-20c0-0.4,0-0.8,0-1.3c16.2-6.6,32.4-13.2,49.8-20.2c-2.7-1.3-4-2-5.3-2.5c-21.4-7.8-42.9-15.5-64.2-23.5
		c-3.9-1.5-7.2-4.3-10.5-6.2c0,5,0,11.2,0,18.5c3.6-8.6,5.6-9.7,12.1-7.5c3.1,1.1,6.2,2.2,9.4,3.3c9.3,3.4,18.5,6.7,28.3,10.3
		c-1,0.9-1.4,1.5-2,1.7c-13.5,5.4-26.9,10.9-40.5,16c-1.2,0.5-3.7-1.2-5-2.4c-1-1-0.9-2.9-1.7-5.8c0,13.2,0,25,0,36.7
		c0.4,0.2,0.9,0.5,1.3,0.7c-0.1-6,3.6-8.5,7.9-10.9c8.6-4.7,16.8-6.4,25.9-0.8c4.9,3,10.8,4.5,16.2,6.6c-4.4,3.1-8.7,5-13.1,6.8
		c-9.9,4.1-19.9,8.2-29.9,12.2c-3.9,1.6-6-0.1-6.6-4.1c-0.1-0.6-0.4-1.2-1.1-3.1c0,12.1,0,22.7,0,32.5c3.2-2.3,6-5.1,9.4-6.5
		c14.8-6.6,29.8-12.8,44.7-19.1C69.7,781.5,77.6,778.1,85.5,774.8z M1417.5,715.7c0,21.6,0,43.2,0,65.4c7.4,1.2,15.2,2.4,22.9,3.7
		c-1.3-1.8-2.9-2.5-4.5-3.3c-5.4-2.5-9.8-6-12.5-11.6c-3.4-7-2.8-14.3-2.2-21.5c0.1-1.6,2.7-4.1,4.2-4.2c9.6-0.4,19.1-0.2,28.8-0.2
		c0.8,13.6-9,15.2-18.4,17.4c0.2,0.4,0.4,0.7,0.6,1.1c12.9,0,25.9,0,38.8,0c-8.7-3-18.2-5.1-17.1-17.6c10.7,0,21.1,0,32.6,0
		c-1,7.9-1.3,15.2-3,22.1c-2,8.1-10,9.3-16.5,12.5c7.4,0,14.7,0,22.7,0c0-21.2,0-42.3,0-63.4c-2,9.8-2.9,10.7-13,10.6
		c-16.6-0.2-33.3-0.7-49.9-0.9C1421.5,725.7,1420.4,725,1417.5,715.7z M775.8,52c-0.5,0.3-1,0.5-1.5,0.8c-0.4-0.7-0.7-1.5-1.2-2.2
		c-11.1-13.8-22-27.6-33-41.4C739,7.9,737.5,6,736.2,6c-8.2-0.3-16.4-0.2-24.7-0.2c0.3,1.1,0.8,1.5,1.4,1.7c6.6,2.3,9,5.5,9,12.3
		c0,15.5,0,31-0.1,46.5c0,11-1.2,12.6-11.3,15.8c8.7,0,17.5,0,26.2,0c-10.4-3.1-11.7-4.7-11.7-16c0-13.8,0.1-27.7,0.1-41.5
		c0-1.2,0.2-2.4,0.5-5c18,22.3,35.2,43.6,52.4,64.9c0.6-0.2,1.1-0.4,1.7-0.5c0-10.1,0-20.1,0-30.2c0-12.2,0.1-24.3,0.2-36.5
		c0.1-6.2,2-8.3,7.9-9.5c0.7-0.1,1.3-0.5,2-0.7c0-0.3-0.1-0.5-0.1-0.8c-8.1,0-16.2,0-24.4,0c0.8,1,1.7,1.4,2.6,1.5
		c4.8,0.2,7.6,3.2,7.8,7.5C776,27.5,775.8,39.8,775.8,52z M727.1,1496.5c3.8-7.5,4.1-7.7,10.5-4.6c5.8,2.8,11.8,3.8,18.3,3.1
		c16.1-1.9,25.1-20.3,15.3-33.1c-4.1-5.4-10.8-8.9-16.6-12.9c-5.1-3.4-10.8-5.8-15.8-9.4c-3.9-2.8-6.1-7.2-4.4-12.3
		c1.6-4.9,6.4-8.3,11.8-8.4c11.2-0.3,20.3,5.5,24.6,15.9c1.2,2.9,2.1,5.9,3.2,8.8c0.3-0.1,0.7-0.2,1-0.2c0-4.6,0-9.2,0-13.8
		c0-4.7,0-9.5,0-14.2c-0.3-0.3-0.6-0.6-0.9-0.9c-3.4,6.6-8,5.8-13.3,3.5c-6.2-2.8-12.8-3.6-19.5-2c-9.2,2.1-16.1,7.1-18.7,16.5
		c-2.5,9-0.4,16.9,7,22.7c4.1,3.3,8.8,5.8,13.4,8.5c5.4,3.2,11.3,5.7,16.2,9.6c2.4,1.9,4.2,6.2,4.1,9.4c-0.1,4.2-3.5,7.1-8,8.4
		c-10.6,3-23.1-5-26.4-16.9c-0.3-0.9-0.7-1.8-1.1-2.8c-0.2,0.1-0.4,0.2-0.7,0.2C727.1,1479.4,727.1,1487.2,727.1,1496.5z"/>
	<path class="st0" d="M851.9,146.9c9.4,2.3,9.4,2.3,7.9,11.2c-0.6,3.7-1.3,7.4-2,11.3c13.8,3,27.1,5.9,40.7,8.9
		c1.4-5.3,3-10,3.9-14.8c0.8-4.7,3-5.8,7.1-3.8c1,0.5,2.2,0.7,3.7,1.2c-1.7,6.6-3.4,13.1-5.2,20c9.4,3,18.6,5.9,27.9,8.8
		c0.3,0.1,0.7,0.1,1,0.2c11.2,3.5,11.2,3.5,15.2-7.6c1-2.8,2.1-5.5,3.1-8.3c3.1,1.1,5.8,2.2,8.6,3.2c-2.4,6.6-4.6,13.1-7,19.8
		c12.8,5.2,25.4,10.4,38.6,15.8c2.9-6,5.8-12.2,9-18.8c2.9,1.3,5.6,2.5,8.7,3.8c-3,6.6-5.8,12.9-8.6,19.2
		c12.5,6.5,24.5,12.7,36.8,19.1c3.5-6,7-11.8,10.6-17.9c2.9,1.6,5.5,3,8.4,4.7c-3.6,6.2-7,12.2-10.3,18.1
		c10.8,7.2,21.3,14.1,31.7,21.1c2.9,1.9,4.5,0.6,6-1.8c3-4.5,6.1-8.9,9.3-13.5c2.9,2,5.3,3.6,7.7,5.3c-4,5.7-8,11.3-12.2,17.4
		c3.2,2.3,6.2,4.4,9.1,6.7c7.2,5.5,14.4,10.9,21.4,16.5c2.2,1.8,3.5,1.7,5.3-0.5c3.5-4.4,7.2-8.6,11.1-13.3c2.5,1.9,4.9,3.8,7.5,5.9
		c-3.7,4.3-7.4,8.7-11.2,13c-1.6,1.8-2.6,3.4-0.3,5.5c9.5,8.6,18.9,17.2,29.3,26.6c4.6-5.1,9.2-10.2,14-15.6
		c2.6,2.9,4.6,5.1,7.4,8.1c-4,3.7-8.1,7.7-12.6,11.3c-2.3,1.9-2,3.4-0.2,5.3c7.8,8.4,15.6,16.6,23.1,25.2c2.3,2.6,4.1,2.1,6.2,0.3
		c4.1-3.5,8.2-7,12.3-10.5c0.4,0.2,0.8,0.3,1,0.5c5.8,6.1,5.8,6.1-0.5,11.5c-1.9,1.6-3.6,3.5-5.7,4.7c-4.7,2.7-3.6,5.3-0.8,8.8
		c6.7,8.3,13.1,16.9,19.5,25.4c1.7,2.3,3.2,2.7,5.7,0.7c4.4-3.4,9.1-6.4,13.7-9.5c0.4,0.2,0.8,0.2,0.9,0.4c4.6,6.5,4.6,6.6-2.2,11.7
		c-3.3,2.5-6.5,4.9-10.1,7.6c5.2,8.1,10.3,15.8,15.2,23.5c1.8,2.8,3.7,5.5,5.1,8.4c1.5,3,3.2,2.8,5.6,1.4c4.9-3,9.8-5.9,14.8-8.9
		c1.6,2.8,3.1,5.4,4.8,8.3c-6,3.5-11.9,6.9-18.2,10.5c6.4,12.3,12.8,24.6,19.4,37.2c6.1-2.7,12.4-5.5,19.1-8.5
		c1.3,2.8,2.4,5.4,3.8,8.4c-5.1,2.4-10,4.8-14.9,7c-2.7,1.2-3.9,2.1-2.5,5.4c4.6,10.5,8.8,21.2,13,31.8c1.1,2.7,2.7,3.4,5.4,2.2
		c3.8-1.6,7.8-2.7,11.5-4.4c3.4-1.6,5.2-1.2,5.9,2.7c0.2,1.4,1.1,2.7,1.9,4.5c-6.5,2.4-12.9,4.8-19.7,7.4c1.1,3.3,2.1,6.5,3.1,9.7
		c2.7,8.8,5.8,17.5,8.1,26.3c0.9,3.6,2.8,3.7,5.4,3c5.4-1.4,10.7-3,16.3-4.6c0.7,2.9,1.4,5.8,2.2,9.2c-5.5,1.5-10.8,3.3-16.2,4.3
		c-3.8,0.7-3.8,2.4-3.1,5.5c2.8,11.7,5.4,23.6,8.3,36.2c6.7-1,13.5-2,20.7-3.1c0.5,3,1,5.8,1.5,9c-6.5,1.3-13,2.6-20.2,4
		c0.8,7.2,1.6,14.3,2.4,21.4c0.6,5.4,1.3,10.8,1.8,16.2c0.2,2.6,0.3,4.2,4.1,3.4c5.6-1.1,11.5-1,17.7-1.5c0.2,3.2,0.4,6.2,0.6,9.6
		c-6.7,0.5-13.2,1.1-20.3,1.6c0,4.5-0.1,8.9,0,13.4c0.2,6,0.4,12,1.1,17.9c0.2,1.3,2.1,3.2,3.5,3.5c18.9,4,37.9,7.7,57,12.4
		c-20,4-40,8-60.2,12.1c-0.5,11.2-1,22.5-1.5,34c7.1,0.7,13.7,1.3,20.7,1.9c-0.3,3.3-0.5,6.2-0.8,9.8c-5.8-0.6-11.5-1-17.2-1.7
		c-2.4-0.3-3.9-0.1-4.2,2.6c-1.5,12.6-2.9,25.3-4.5,38.5c6.7,1.3,13.2,2.5,20.3,3.9c-0.5,3.1-1.1,6.1-1.6,9.3
		c-7.1-1.1-13.9-2.1-20.6-3.2c-2.9,12.8-5.6,24.8-8.5,36.8c-0.6,2.7-0.2,4,2.6,4.6c5.6,1.3,11.2,2.9,17,4.4
		c-0.8,3.2-1.6,6.1-2.5,9.3c-6.8-1.7-13.5-3.4-20.3-5.2c-4.2,13.4-8.2,26.1-12.4,39.5c6.3,2.4,12.7,4.8,19.5,7.4
		c-1.1,3-2.1,5.7-3.3,9c-5.6-2-10.9-3.6-16-5.8c-2.9-1.2-4.2-0.5-5.3,2.3c-4.2,10.6-8.5,21.2-13.1,31.7c-1.2,2.8-0.3,3.9,2,4.9
		c5.1,2.3,10.2,4.7,15.6,7.2c-1.3,2.9-2.5,5.6-3.9,8.8c-6.4-2.9-12.7-5.7-19.1-8.5c-6.4,12.3-12.7,24.3-19.2,36.7
		c5.9,3.5,11.8,7,18.1,10.7c-1.6,2.8-3.2,5.4-4.9,8.3c-6.1-3.4-12-6.7-18.2-10.2c-7.5,11.7-14.8,23.1-22.4,34.9
		c5.7,4,11.3,8.1,17.2,12.3c-1.8,2.5-3.6,5-5.6,7.8c-5.8-3.9-11.3-7.8-17.3-11.9c-3.5,4.6-6.9,9.1-10.3,13.5
		c-4.5,5.8-9.1,11.4-13.4,17.3c-0.6,0.8-0.2,3.2,0.6,4c4.2,4,8.7,7.7,13.5,11.8c-1.8,2.3-3.7,4.6-5.8,7.2
		c-5.5-4.5-10.9-8.9-16.4-13.4c-9.5,10.4-18.8,20.6-28.1,30.9c4.9,5,9.8,9.9,14.9,15c-2.3,2.1-4.5,4.1-7.2,6.4
		c-4.5-4.9-9.1-10-13.9-15.2c-10.9,10-20.8,19.2-31.3,28.9c4.4,5.3,8.8,10.6,13.4,16.1c-2.4,2-4.7,4.1-7.4,6.4
		c-3.9-4.6-7.5-9.1-11.4-13.4c-0.9-0.9-3.5-1.7-4.3-1.1c-10.3,7.8-20.5,15.8-30.9,23.8c3.9,5.6,7.8,11.2,12,17.1
		c-2.5,1.8-5.1,3.5-8,5.6c-4.2-5.9-8.1-11.5-12.1-17.1c-11.7,7.5-23.2,14.8-35.1,22.3c3.3,5.8,6.6,11.6,10.3,18
		c-2.6,1.6-5.2,3.1-8.3,5c-3.6-6.1-7-11.9-10.7-18.1c-7.9,4.1-15.6,8.2-23.3,12.3c-2.8,1.5-5.5,3.2-8.5,4.2
		c-4.9,1.6-4.9,4.2-2.7,8.1c2.4,4.3,4.2,8.9,6.4,13.6c-3,1.5-5.7,2.8-8.7,4.3c-3-6.3-6-12.6-9-19c-12.7,5.3-25.2,10.4-38.3,15.9
		c2.2,6.2,4.4,12.7,6.9,19.6c-2.8,1.1-5.6,2.2-8.9,3.5c-2-5.5-4.2-10.9-6-16.3c-0.9-2.9-2.5-3.2-4.9-2.4
		c-11.9,3.9-23.9,7.7-36.2,11.7c1.3,4.8,2.4,9.8,4,14.6c1.4,4.2,0.9,6.6-4.1,6.9c-1.2,0.1-2.4,0.6-4,1c-1.9-6.9-3.7-13.4-5.5-20.1
		c-13.5,3-26.8,6-40.5,9c0.8,5,1.4,9.9,2.3,14.7c1.1,6.3,1.1,6.3-5.4,6.9c-0.8,0.1-1.6,0.3-2.9,0.5c-1.3-6.8-2.6-13.6-3.9-20.5
		c-13.7,1.8-27,3.5-41,5.4c0.4,6.8,0.9,13.8,1.3,21.2c-3.2,0-5.9,0-9.4,0c-0.6-6.5-1.3-13.1-2-20.5c-11.1,0.6-22.2,1.3-33.9,1.9
		c-4.1,20.5-8.2,41-12.5,62.5c-4.3-21.4-8.3-41.9-12.4-62.5c-11.4-0.7-22.3-1.3-33.9-2c-0.8,6.9-1.5,13.7-2.3,20.5
		c-3.2,0-6.2,0-9.6,0c0.6-7.2,1.2-14.1,1.8-21.1c-13.8-1.8-27.2-3.6-41.2-5.4c-1.3,6.8-2.6,13.6-3.9,20.2c-0.7,0.1-1,0.2-1.2,0.1
		c-8.4-1.4-8.4-1.4-6.8-10.1c0.7-3.7,1.3-7.5,2.1-11.9c-13.5-3-26.9-5.9-40.7-8.9c-1.9,6.9-3.8,13.4-5.6,19.9
		c-0.6-0.1-0.9-0.1-1.1-0.2c-7.7-2.3-7.7-2.3-5.9-10.1c0.9-4,1.9-7.9,3-12.3c-13.1-4.1-26.1-8.3-39.6-12.5
		c-2.4,6.4-4.8,12.7-7.3,19.5c-2.9-1.1-5.8-2.1-9-3.3c2.4-6.6,4.7-13.1,7-19.6c-12.8-5.3-25.3-10.5-38.3-15.9
		c-2.9,6-5.9,12.2-9.1,18.8c-2.8-1.3-5.5-2.6-8.7-4.1c2.9-6.4,5.8-12.7,8.6-19c-12.5-6.5-24.5-12.8-36.8-19.2
		c-3.5,6-6.9,11.8-10.5,17.9c-2.9-1.6-5.4-3.1-8.4-4.7c3.5-6.2,6.8-12,10.3-18.2c-11.6-7.4-23.1-14.7-35-22.3
		c-3.9,5.5-7.9,11.1-12.1,17c-2.8-2-5.3-3.7-8-5.6c4.1-5.9,8-11.4,11.9-17.1c-10.4-8-20.5-16-30.8-23.7c-0.8-0.6-3.7,0.3-4.6,1.3
		c-3.8,4.1-7.3,8.5-11.1,13.1c-2.5-2.2-4.8-4.1-7.4-6.3c4.5-5.4,8.8-10.6,13.4-16.2c-10.1-9.4-20.2-18.6-31-28.7
		c-4.6,5.2-9.2,10.3-13.5,15.2c-3-2.8-5.2-4.9-7.3-6.9c3.7-3.8,7.3-7.8,11.2-11.5c2.6-2.5,2.8-4.1,0.1-6.8
		c-8.5-8.8-16.6-17.9-25.2-27.2c-5.2,4.3-10.7,8.7-16.3,13.3c-2-2.3-3.9-4.6-6-7.1c5.3-4.5,10.5-8.9,16.1-13.6
		c-5.1-6.6-10-13-14.8-19.4c-2.5-3.3-5.2-6.5-7.3-10c-2.4-3.9-4.7-3.7-7.9-1.1c-4,3.2-8.3,6-12.7,9.2c-1.9-2.6-3.7-5.1-5.6-7.8
		c5.2-3.6,10.4-7,15.4-10.7c0.8-0.6,1.4-2.8,0.9-3.6c-7-10.8-14.3-21.5-21.8-32.7c-5.8,3.2-11.8,6.5-18.1,10c-1.7-3-3.2-5.5-4.8-8.3
		c6.1-3.6,11.9-7,18-10.6c-6.4-12.3-12.7-24.4-19.2-36.8c-6.3,2.9-12.4,5.6-19,8.6c-1.4-3-2.7-5.8-4.1-8.7
		c6.5-3.1,12.6-5.9,18.7-8.9c-5-12.5-9.8-24.4-14.8-36.3c-0.3-0.8-3.1-1.3-4.4-0.9c-5.4,1.6-10.6,3.6-16.2,5.6
		c-1.1-3.2-2.1-5.9-3.2-9c6.6-2.5,12.9-4.8,19.6-7.3c-2.7-8.2-5.3-16.2-7.8-24.1c-1.2-3.8-2.5-7.5-3.3-11.4
		c-0.8-3.5-2.3-4.1-5.6-3.1c-5.2,1.6-10.5,2.8-16,4.3c-0.9-3.2-1.6-6-2.5-9.3c5.6-1.5,11.1-3.2,16.6-4.4c3-0.6,3.8-1.6,3.1-4.7
		c-2.9-11.9-5.5-23.8-8.5-36.7c-6.6,1-13.5,2-20.7,3.1c-0.5-3.1-1.1-6-1.6-9.3c6.8-1.3,13.4-2.5,20.6-3.9
		c-1.8-13.7-3.5-27.4-5.3-41.3c-7.1,0.6-13.7,1.2-20.6,1.9c-0.5-3.2-0.9-6.3-1.4-9.8c7-0.6,13.7-1.2,20.7-1.9c0-4.4,0.1-8.6,0-12.9
		c-0.1-3.5-0.7-6.9-0.7-10.4c-0.2-11.5-0.2-11.2-11.6-13.2c-15.8-2.8-31.5-6.1-47.2-9.1c-0.4-0.1-0.8-0.5-2.1-1.2
		c8.2-1.7,15.6-3.2,23.1-4.7c11.7-2.3,23.4-4.6,35-7.1c1.1-0.2,2.7-2,2.7-3.1c0.6-9.1,0.7-18.3,1.2-27.4c0.2-3.2-0.9-4.4-4.2-4.4
		c-5.5-0.1-10.9-0.8-16.9-1.3c0.4-3.1,0.8-6.1,1.3-9.7c6.8,0.4,13.5,0.9,20.8,1.4c1.8-13.7,3.5-27.1,5.3-40.7
		c-6.9-1.3-13.3-2.6-20.3-3.9c0.4-3,0.8-6,1.2-9.6c7.1,1.1,14,2.2,21,3.3c3-13.5,5.8-26.3,8.8-40.1c-6.5-1.9-13.2-3.8-20.1-5.8
		c0.8-3.2,1.5-6.2,2.3-9.5c6,1.7,11.7,3.3,17.5,4.7c1.1,0.3,3.5-0.6,3.8-1.5c3.9-12.2,7.5-24.6,11.4-37.3
		c-6.2-2.3-12.5-4.7-19.3-7.2c1-3,2-5.9,3.1-9.2c6.7,2.4,13.1,4.6,19.8,7c5.2-12.7,10.4-25.2,15.8-38.2c-6.2-3-12.4-5.9-18.8-9
		c1.4-3.1,2.6-5.8,4.1-8.9c6.4,2.9,12.6,5.8,19.1,8.7c5.1-9.7,10.1-19.4,15.2-29.1c4-7.5,4-7.5-3.5-11.9c-3.3-1.9-6.6-3.9-9.8-5.8
		c-0.1-0.1-0.2-0.3-0.6-0.8c1.4-2.5,2.9-5.2,4.6-8.2c6.1,3.5,12.1,6.9,18.3,10.4c7.5-11.7,14.7-23.1,22.2-34.8
		c-5.7-4-11.3-8.1-17.2-12.2c1.9-2.6,3.7-5.1,5.8-8c5.8,4,11.4,7.8,17.3,11.9c8.3-10.9,16.6-21.6,25.2-32.8
		c-5.3-4.5-10.7-9.1-16.1-13.7c2.3-2.6,4.3-5,6.5-7.5c4.6,3.9,9,7.7,13.5,11.2c1,0.8,3.5,1.3,4,0.7c8.8-9.4,17.5-19,26.3-28.7
		c-5.1-4.8-10-9.5-15.3-14.4c2.8-3,4.9-5.2,7.2-7.7c4.8,5.3,9.5,10.4,14.4,15.8c11.2-10.3,21.3-19.6,31.6-29
		c-4.5-5.4-8.8-10.6-13.4-16.2c2.4-2.1,4.8-4.1,7.5-6.5c3.6,4.4,7.4,8.5,10.7,12.9c2.3,3,3.9,3,6.8,0.6c8.4-6.8,17-13.3,25.7-19.7
		c2.8-2.1,3.1-3.6,0.9-6.4c-3.4-4.3-6.3-8.9-9.6-13.7c2.7-1.9,5.2-3.7,8.1-5.7c3.5,5,6.9,9.6,10.2,14.4c1.3,1.9,2.3,2.9,4.7,1.3
		c10.5-7,21.1-13.8,32.1-20.9c-3.3-5.9-6.7-11.9-10.3-18.1c2.8-1.7,5.4-3.2,8.4-5c3.6,6,7.1,11.9,10.7,18.1
		c12.1-6.3,24.1-12.5,36.6-19.1c-2.8-6.2-5.6-12.3-8.7-19c2.9-1.4,5.8-2.7,8.9-4.2c3.1,6.4,6,12.5,9,18.9
		c12.7-5.3,25.3-10.5,38.2-15.9c-2.3-6.6-4.6-13-7.1-19.8c3-1.1,5.8-2.1,9.2-3.4c1.8,5,3.7,9.8,5.3,14.7c1.2,3.6,2.6,5.3,7,3.6
		c11.2-4,22.6-7.3,34.4-11.1c-1.3-4.8-2.2-9.9-4-14.5c-1.8-4.8-0.3-6.8,4.3-7.4c1.1-0.2,2.3-0.3,3.9-0.5c1.7,6.3,3.5,12.6,5.4,19.7
		c13.4-2.9,26.9-5.8,40.5-8.8c-0.8-4.8-1.5-9.4-2.4-13.9c-1.3-6.6-1.4-6.5,5.2-7.9c0.8-0.2,1.6-0.5,3.1-1c1.4,7.2,2.8,14.1,4.2,21.1
		c13.8-1.8,27.1-3.6,41-5.4c-0.7-6.9-1.3-13.8-2-21c3.1,0,6.2,0,9.9,0c0.7,6.4,1.4,13.1,2.2,20.3c11.1-0.6,22.1-1.2,33.8-1.8
		c4.1-20.4,8.1-41,12.5-62.6c3.3,16.8,6.5,32.5,9.6,48.2c0.2,1,0.5,1.9,0.7,2.9c0.8,3.7,0.5,8.5,2.8,10.8c2,2,6.8,1.2,10.4,1.4
		c7.4,0.4,14.9,0.7,22.9,1.1c0.7-6.8,1.4-13.6,2.1-20.3c3.3,0,6.1,0,9.4,0c-0.5,7.3-0.9,14.2-1.3,21.1c13.7,1.8,27,3.6,40.9,5.4
		C849.1,160.9,850.5,154,851.9,146.9z M313.8,1054.4c-5.1-7.9-9.9-15.5-15-22.9c-0.8-1.1-3.2-2.4-3.9-2c-8.5,4.5-16.8,9.3-26.4,14.7
		c13.4,18.6,26.4,36.7,39.5,54.6c0.6,0.8,3.3,0.7,4.5,0c2.4-1.4,4.3-3.7,6.6-5.2c1.4-0.9,3.4-1.7,5.1-1.6c9,0.7,10.5-0.6,11-10
		c0.3-5.5,0.5-11.1,3.8-16.1c8.1,8.3,8.4,9.3,3.8,18.9c-1.2,2.5-2.5,5.1-4.2,7.3c-5.6,7.3-7.7,15.7-8.7,24.6
		c-0.4,4-0.8,7.9-1.3,12.9c-5.6-6.5-10.5-12.1-15.3-17.8c-54.2-65.4-92.1-139.2-112.7-221.6c-5.7-22.7-9.8-46-13.3-69.2
		c-2.6-16.9-2.9-34.1-4.3-51.1c-0.1-1.2-0.9-3.3-1.7-3.5c-5.2-1.2-10.5-2.1-16.2-3.1c0,2.6-0.1,4.3,0,5.9
		c1.3,16.7,1.8,33.5,4.1,50.1c3.3,23.6,7.2,47.1,12.4,70.3c6.8,30.2,16.9,59.5,29.1,88c28.9,67.9,69,128.4,120.3,181.5
		c4.7,4.9,8.7,10.6,13.8,15.1c8,7.2,16.7,13.6,24.9,20.6c34.7,29.7,72.3,55,112.9,76c46.6,24,95.5,41.8,147,52
		c15.7,3.1,31.6,5.6,47.5,7.8c12,1.7,24,3,36.1,3.8c7.9,0.6,15.8,0.1,24.1,0.1c-1-4.7-2.2-9.5-2.9-14.4c-0.4-2.9-2-3.3-4.4-3.5
		c-19.3-1.6-38.7-2.9-58-5c-29.1-3.3-57.7-9.9-85.7-18.4c-50.3-15.4-97.8-37-142-65.7c-10.5-6.8-20.7-14-31.1-21
		c0.3-0.6,0.6-1.3,0.9-1.9c2.4,0.8,5,1.3,7.1,2.6c10.6,6.9,21,14,31.5,21c2,1.3,3.9,2.9,5.7-0.4c4.6-8.1,9.2-16.1,13.7-23.8
		c-17.8-12.5-35.3-24.8-52.9-37.2c-2.6,2.9-5.3,6-8.6,9.7c-0.7-3.2-1.6-5.5-1.7-7.9c-0.2-5.7,2.9-9.4,7.9-11.6
		c4.5-2,8.6-4.3,13.7,0.1c7,6.1,14.7,11.4,22.2,16.7c54.9,38.6,114.9,65.8,180.3,80.6c21.4,4.8,43.4,7.7,65.1,11
		c8.3,1.3,16.7,1.3,25.7,1.9c-2.8-14.6-5.5-28.5-8.2-42.3c3.3-1.9,4.1-0.4,4.7,2.5c4.6,23.9,9.3,47.7,14,71.6
		c4,20.3,8,40.6,12.1,60.8c1,5,2.3,10,3.4,15c0.4-0.1,0.9-0.1,1.3-0.2c0-2.5,0-4.9,0-7.4c0-48.3,0.1-96.7-0.1-145
		c0-5.1-0.1-9.2,6.1-11c5-1.5,4.6-6.6,3.9-10.6c-0.7-4.1-4.1-4.7-7.7-4.6c-0.6,0-1.2-0.2-2.3-0.4c0-8.4,0-16.7,0-25.1
		c-3.5-0.2-6.5-0.3-10.4-0.5c1.3-0.9,1.8-1.4,2.3-1.6c1.8-0.8,3.7-1.5,5.6-2.2c15.6-5.3,30.6-1.9,45.4,3.2c1.1,0.4,2.2,3.2,1.9,4.6
		c-4.7,24-9.6,48-14.4,71.9c-1.4,6.9-2.6,13.8-4,20.8c103.8-4,243.2-45.9,353-164.8c84.7-91.8,130-200.5,138-326
		c-8.2,1.6-15.4,2.9-22.6,4.4c-21.3,4.3-42.6,8.7-63.9,12.8c-2.6,0.5-3.4,1.4-3.9,4c-2.8,16.5-5.3,33.1-8.9,49.4
		c-7.9,35.7-21.5,69.4-39,101.4c-30.3,55.2-71.1,101.2-121.7,138.5c-1.1,0.8-3.2,2-3.8,1.6c-5.8-3.8-10.6-1.6-15.6,2.1
		c-0.6-4.3,1.1-6.7,4.3-8.9c83.7-60,139.3-139.2,163.8-239.7c5-20.7,8.3-41.7,9.8-62.9c1.9-26.3,2.1-52.6-2.4-78.7
		c-3.5-20.4-6.5-41.1-12.3-60.9c-31-105.9-95.6-185.8-190.3-241.6c-33.7-19.8-69.8-34-107.8-43.3c-11.1-2.7-22.2-5-33.3-7.4
		c0-4.2,0-8.2,0-12.3c1.4,0,2.6-0.2,3.7,0c32.4,5.9,64,14.4,94.5,27.3c24.1,10.2,47.1,22.2,69.1,36.4c37.5,24.2,70.5,53.6,98.7,88.2
		c51.1,62.8,81.8,134.4,91.3,214.9c0.3,2.6,1,3.6,3.8,4.1c21.4,4.1,42.8,8.5,64.1,12.7c7.2,1.4,14.4,2.8,22.7,4.4
		c-9.4-140.3-63.8-258.8-166.3-354c-91.1-84.6-199.9-129.4-324.8-137.2c0.7,4.6,1.2,8.5,2,12.3c3.1,15.6,6.3,31.1,9.4,46.7
		c0.6,3.3,0.2,3.6-3.5,3.5c-11.2-56.6-22.5-113.3-33.7-169.9c-0.5,0.1-1,0.1-1.6,0.2c0,2.4,0,4.9,0,7.3c0,58,0,116-0.1,174
		c0,2.2-0.8,5.1-2.3,6.4c-8.3,6.9-15.7,14.6-20.7,24.1c-2.8,5.3-6.7,7-12.2,7.3c-34.8,2.5-68.6,9.8-101.6,21.1
		c-164.5,56.4-283.2,211.3-278.9,395.9c0,1.1-0.2,2.1-0.3,4c-5.9-5-11.2-9.5-15.4-13.1c1.1-2.4,2.3-3.9,2.4-5.4c0.5-6,0.7-12,1-17.9
		c0.3-6.1,0.6-12.2,0.9-18.4c-1.1,0-2-0.1-2.7,0c-12.2,2.5-24.4,5-36.5,7.4c-3.1,0.6-6.2,1.4-8.3-2.3c0.6-0.4,1.2-0.9,1.8-1
		c14.3-2.8,28.5-5.6,42.9-8.2c2.8-0.5,3.7-1.5,4.2-4.3c2.9-17.2,5.1-34.5,9.3-51.4c36.9-149.1,153.5-264.2,300-304.6
		c22.8-6.3,46.3-10,70.6-15.1c6.2-31.5,12.7-64.4,19.4-98.4c-152.2,10.9-277.4,73.2-374.2,189.9c-72.2,87.1-110.2,188.2-116.9,301.7
		c11.3-2.2,21.5-4.3,31.6-6.3c1.5,3.8-0.6,4.4-3.2,4.9c-37.1,7.3-74.1,14.7-111.2,22c-8.2,1.6-16.4,3.4-24.6,5
		c0,0.4,0.1,0.7,0.1,1.1c3.1,0,6.3,0,9.4,0c48.2,0,96.3,0,144.5,0.1c2.2,0,5.2,0.7,6.6,2.2c16.8,17.4,33.3,35,49.8,52.6
		c1.5,1.6,2.5,3.9,3,6.1c2.1,9.9,3.6,19.9,5.8,29.8c9.8,43,26.7,83,49.9,120.5c1.7,2.7,1.6,4.7,0.2,7.3c-1.8,3.1-3.1,6.4-4.6,9.8
		c-0.2-0.3-0.8-0.9-1.2-1.6c-35.5-54.3-57.1-113.7-64.8-178.1c-0.4-3.1-1.4-4.2-4.4-4.8c-23-4.5-46-9.2-69-13.8
		c-5.7-1.1-11.5-2.1-17.6-3.2c0,3.3-0.3,6,0,8.6c2.2,18.1,4.1,36.2,6.9,54.2c5.2,33.6,14.8,66.2,27.1,97.9
		c13.1,33.9,29.7,65.9,49.5,96.3c0.8,1.2,1.4,3.1,1.1,4.5C316.6,1043.4,315.2,1048.5,313.8,1054.4z M1336.7,736.3
		c-7.7-174.6-75.1-319.9-207.6-433.3c-104.7-89.6-227.2-134.6-365.6-139.2c1.1,5.4,2.4,9.9,3,14.5c0.4,3.3,1.8,4.3,5.1,4.5
		c14.1,0.8,28.2,1.5,42.2,3.1c16.3,1.9,32.7,4.1,48.7,7.5c17.6,3.7,34.9,8.6,52.2,13.4c30.1,8.4,58.9,20.2,86.8,34.1
		c30.2,15,59,32.4,86.1,52.6c23.4,17.5,45.4,36.5,66,57.2c24.1,24.3,45.8,50.6,65.2,78.7c16.2,23.5,30.5,48.3,42.9,74.1
		c12.6,26.2,23.8,52.9,31.3,81c5.9,22.1,11.3,44.3,15.7,66.7c3.4,17.3,5,34.9,7.1,52.4c1.1,8.9,1.3,17.9,2.1,26.8
		c0.1,1.1,1.4,2.8,2.3,3C1325.2,734.4,1330.3,735.2,1336.7,736.3z M1336.3,763.3c-6,1-11.2,1.7-16.3,2.9c-0.9,0.2-1.9,2.1-2.1,3.3
		c-1.4,15.3-2.5,30.6-4.1,45.8c-1.4,13-2.4,26.1-5.3,38.8c-5.4,23.7-11.1,47.5-18.2,70.7c-14.3,46.3-35.3,89.7-61.4,130.5
		c-34.6,54-77.1,100.9-127.4,140.6c-44.4,35.1-93.1,62.6-145.8,83.2c-25.5,10-51.6,18.1-78.5,23.8c-17.6,3.7-35.4,7.4-53.2,9.7
		c-17.7,2.3-35.7,2.9-53.6,4.3c-1.1,0.1-3.1,0.7-3.2,1.5c-1.3,5.5-2.2,11.1-3.5,17.5c166.5-6.8,307.2-69.3,419.3-191.4
		C1281.4,1037.4,1331.2,909.4,1336.3,763.3z M737.3,163.5c-170.8,7.4-313.8,72.4-426.6,199.7c-93.9,105.9-141.2,231.1-146.2,373.2
		c6.1-1.1,11.2-1.9,16.1-3.1c1-0.2,2.1-2,2.2-3.1c0.8-9.1,1.1-18.3,2.1-27.3c1.8-17.1,3.2-34.4,6.2-51.3
		c5.3-29.5,12.7-58.5,22.5-86.9C237.3,495.9,273,434,320.4,379.1c51.7-60,113.5-107.2,185-141.5c38.2-18.3,78-32.2,119.3-41.6
		c32.2-7.3,64.9-11.9,97.9-13.1c10.2-0.4,10.2-0.2,12.5-10C735.8,170.2,736.4,167.5,737.3,163.5z M1179.1,789.8
		c65.7-13,130.9-26,196.2-39c0-0.3-0.1-0.6-0.1-0.9c-64.7,0-129.3,0-194,0C1180.6,763.3,1179.9,776.2,1179.1,789.8z M1148.9,397.5
		c7.1-5.9,13.6-11.5,20.4-16.8c3.3-2.6,3.5-5.1,0.8-7.8c-14.4-14.4-28.8-28.8-43.2-43.2c-2.6-2.6-4.8-2-7,0.7
		c-4.6,5.8-9.3,11.6-14.3,17.2c-2.6,2.9-1.9,4.7,0.5,7.1c9.6,9.2,19.2,18.3,28.7,27.7C1139.5,387,1144,392.1,1148.9,397.5z
		 M1232.2,456.5c-0.4-0.5-0.8-0.9-1.2-1.4c-0.5-1-0.9-2.2-1.5-3.1c-8.2-12.2-16.3-24.5-24.7-36.6c-3.5-5-7.4-9.7-11.3-14.5
		c-1.4-1.7-2.8-3.2-5.3-1.1c-6,5.2-12.1,10.3-18.2,15.3c-2.7,2.2-2.6,4.3-0.6,7.1c10.9,15.3,21.7,30.7,32.4,46.2
		c1.7,2.5,3.1,2.8,5.6,1.3c7.1-4.1,14.3-8.1,21.5-12.1C1230,457.3,1231.1,457,1232.2,456.5z M1101.5,309.2c-1.2-1.3-2-2.5-3.2-3.3
		c-16.7-11.8-33.4-23.6-50.2-35.3c-2.3-1.6-4.5-1.6-6.1,1.4c-3.8,6.9-7.7,13.8-11.8,20.6c-1.7,2.8-1.4,4.1,1.5,5.8
		c5.3,3.1,10.3,6.5,15.3,10.1c10.8,7.6,21.4,15.5,32.2,23.1c1,0.7,3.7,0.7,4.4-0.1c5.4-6.1,10.5-12.4,15.6-18.6
		C1100,311.7,1100.6,310.6,1101.5,309.2z M1274.9,544.2c0-1,0.2-1.6,0-2c-9.1-19.6-18.2-39.2-27.3-58.8c-1.2-2.7-2.9-3.2-5.5-1.6
		c-6.4,3.7-12.7,7.5-19.3,10.8c-4.2,2.1-4.4,4.5-2.4,8.2c3.3,6.1,6.5,12.1,9.4,18.4c5.4,11.7,10.6,23.6,16,35.5
		C1255.4,551.2,1265,547.7,1274.9,544.2z M1020.8,253.9c-21.7-10.1-42.9-20-64.3-30c-3.7,9.9-7.2,18.7-10.3,27.6c-0.4,1,1,3.5,2.1,4
		c17.3,8.3,34.7,16.4,52,24.5c2.1,1,4.2,1.9,5.9-1.1C1010.8,271,1015.5,263.1,1020.8,253.9z M1004.5,1218.1
		c-20,9.4-39.2,18.3-58.8,27.5c3.5,9.5,7,19,11.1,29.9c21.6-10.1,42.4-19.9,63.7-29.9C1014.7,1235.7,1009.6,1226.9,1004.5,1218.1z
		 M930,215.8c-0.3-0.4-0.4-0.6-0.5-0.6c-21.3-5.8-42.5-11.6-63.8-17.3c-2.9-0.8-4.2,0.9-4.7,3.5c-1.3,7.6-2.7,15.2-3.9,22.7
		c-0.4,2.4-0.3,4.2,3.2,4.9c7.9,1.5,15.6,3.5,23.3,5.6c11.9,3.2,23.8,6.7,35.9,10.1C923,235,926.5,225.3,930,215.8z M1272.1,643.7
		c9.4-1.7,18.4-3.4,27.4-4.8c2.4-0.4,3.8-0.9,3-3.7c-5.6-20.3-11.2-40.6-16.5-61c-0.9-3.5-2.4-3.8-5.2-2.8c-7,2.6-14.1,5.1-21.2,7.5
		c-3.6,1.2-4.2,2.8-3,6.6c3.6,11.2,6.5,22.7,9.5,34C1268.3,627.6,1270.2,635.7,1272.1,643.7z M862.2,1303.2
		c22.9-6.1,45.1-12,67.9-18.1c-3.9-10.9-7.4-20.5-10.8-29.8c-21,5.6-41.6,11.1-62.6,16.7C858.5,1281.6,860.2,1291.5,862.2,1303.2z
		 M1272.7,856c-0.3,0.6-0.7,1-0.8,1.5c-5.3,19.6-10.6,39.1-15.7,58.8c-0.2,0.9,1.1,3,2.2,3.4c7.2,2.9,14.6,5.3,21.8,8.1
		c3.3,1.3,5.6,1.4,6.2-3c0.3-2.4,1.4-4.7,2.1-7c5-18.5,10.1-37,15.3-56.1C1292.6,859.6,1282.6,857.8,1272.7,856z M1218.3,1003.8
		c9.3,5.4,18,10.4,27.7,16c10.1-21.6,19.9-42.7,29.8-63.9c-9.8-3.5-18.2-6.3-26.5-9.5c-3.3-1.3-4.3-0.1-5.5,2.6
		c-4.8,11.1-9.6,22.2-14.7,33.1C1225.9,989.3,1222.1,996.3,1218.3,1003.8z M418.8,332.7c17.8-12.5,35.3-24.7,53.1-37.2
		c-4.5-7.8-9-15.9-13.9-23.8c-0.6-1-3.7-1.6-4.7-0.9c-17.2,11.9-34.3,24-51.4,36c-2.5,1.7-2.3,3.2-0.5,5.2
		C407.2,318.8,412.9,325.7,418.8,332.7z M480.8,1244.9c20.9,11.3,41.6,21.4,63.7,29.5c3.7-10.1,7.1-19.5,10.4-28.7
		c-19.7-9.2-39.1-18.2-58.7-27.4C491.2,1226.8,486.2,1235.6,480.8,1244.9z M224.9,543.5c9.7,3.5,18,6.4,26.1,9.6
		c3.2,1.3,4.5,0.7,5.9-2.5c7.3-16.2,14.8-32.2,22.3-48.3c3.1-6.5,3.2-6.5-3.2-10.2c-6.8-3.9-13.7-7.8-21.4-12.2
		C244.6,501.4,234.9,522.2,224.9,543.5z M1124,1173.1c15.9-16.3,31.4-32.1,46.8-48.1c0.6-0.7,0.4-3.3-0.3-4
		c-7.1-6.2-14.3-12.2-21.7-18.4c-2.4,2.7-4.4,5.1-6.6,7.3c-12,11.9-24.2,23.7-36.1,35.7c-1,1-1.8,3.9-1.1,4.7
		C1110.8,1157.7,1117,1164.8,1124,1173.1z M254.6,1019.7c9.4-5.4,17.8-10.1,26.1-15.2c0.7-0.4,0.6-3,0.1-4.1
		c-8-17.4-16.1-34.8-24.4-52.1c-0.5-1.1-2.9-2.5-3.9-2.2c-8.9,3-17.6,6.3-27.6,9.9C234.8,977.3,244.6,998.2,254.6,1019.7z
		 M1232,1044c-9.2-5.3-17.2-9.8-25.2-14.6c-2.4-1.4-3.4-0.2-4.7,1.6c-10.9,15.7-22,31.3-32.9,47c-0.7,1.1-0.6,4,0.3,4.8
		c6.9,6.2,14,12.1,22,18.9C1205.2,1082.4,1218.4,1063.4,1232,1044z M1028.9,1204.1c4.3,7.5,8.8,15,12.9,22.7
		c1.8,3.4,3.5,3.7,6.6,1.7c9.6-6.5,19.4-12.7,28.8-19.4c8.2-5.8,16.1-12,24.6-18.4c-7-8.4-13.5-16.2-19.8-23.8
		C1064,1179.5,1046.6,1191.7,1028.9,1204.1z M269.3,455.8c7.4,4.2,14.1,8.1,20.9,11.9c6.5,3.7,6.3,3.6,10.7-2.6
		c10-14.3,20.2-28.5,30.1-42.8c0.9-1.3,1.8-4.4,1.1-4.9c-7.2-6.5-14.8-12.6-22.7-19.3c-9.6,13.5-18.9,26.2-27.9,39.1
		C277.2,443,273.6,449.1,269.3,455.8z M215.3,929.5c9.6-3.5,17.7-6.8,26-9.4c3.4-1.1,3.9-2.3,2.9-5.7c-4-13.8-7.8-27.6-11.5-41.5
		c-1.4-5.4-2.7-10.8-4.1-16.7c-10.5,1.8-20.5,3.6-31.5,5.5C203.3,884.6,209.2,906.7,215.3,929.5z M376.7,326.4
		c-16,16.3-31.5,32.1-46.9,48.1c-0.7,0.7-0.6,3.2,0,3.8c7.2,6.3,14.6,12.3,21.4,18.1c15-14.6,29.6-28.8,44.1-43.1
		c0.8-0.8,1.3-3,0.8-3.6C390.1,342.2,383.9,334.9,376.7,326.4z M228.6,643.3c0.6-2.1,0.9-3.4,1.3-4.6c4.2-16,8.2-32,12.6-47.9
		c2.6-9.6,2.9-9.6-6.3-13.1c-6.5-2.5-13.2-4.8-20.8-7.5c-6.1,23-12.1,45.2-18.1,67.8C208.4,639.9,218.3,641.6,228.6,643.3z
		 M480.6,254.3c4.9,8.5,9.4,15.9,13.5,23.5c1.8,3.3,3.5,3.6,6.6,2c10.9-5.5,21.9-11,33-16.2c7-3.3,14.1-6.1,21.3-9.2
		c-3.2-8.8-6.4-16.9-9.1-25.3c-1.2-3.6-2.9-3.8-5.9-2.4c-5.7,2.6-11.7,4.7-17.3,7.4C508.9,240.5,495.1,247.3,480.6,254.3z
		 M570.7,214.7c3.9,10.8,7.4,20.3,10.7,29.3c20.3-5.1,40.1-10.1,59.8-15.2c1-0.3,2.6-2,2.4-2.8c-1.5-9.4-3.4-18.7-5.4-29.3
		C615.5,202.7,593.3,208.6,570.7,214.7z M570.7,1284.9c22.9,6.1,45.1,12,67.7,18c2-11.4,3.8-21.4,5.5-30.8
		c-21.2-5.7-41.7-11.2-62.4-16.7C578.1,1264.7,574.6,1274.2,570.7,1284.9z M1308.4,833.9c2-22.3,3.9-44,5.8-65.8
		c-1.6-0.1-2.3-0.3-2.9-0.2c-9,1.7-18,3.3-27,5.3c-1.1,0.2-2.2,2.5-2.4,4c-0.8,7.4-1.2,14.8-1.9,22.3c-0.9,9.5-1.9,19-2.9,29
		C1287.1,830.1,1297,831.9,1308.4,833.9z M774.2,217.2c17.3,1.9,34.1,3.7,50.9,5.6c2.6,0.3,4.2-0.6,4.6-3.1c1.1-6,2.2-12,3.1-18
		c0.5-3,0.8-6.1,1.2-9.6c-22-2.7-43.4-5.6-65.8-5.3C770.4,197.5,772.3,207.3,774.2,217.2z M1277.2,671.1c1.8,18.5,3.6,36.4,5.5,54.7
		c9.9,1.9,20.1,3.9,31.5,6.2c-2-22.7-3.8-44.4-5.8-66.5C1297.2,667.5,1287.2,669.3,1277.2,671.1z M192.5,665.9c-2,22-4,43.8-6,66.3
		c11.7-2.4,22-4.4,31.4-6.3c1.9-17.9,3.8-34.8,5.5-51.8c0.1-1-1.4-2.9-2.5-3.1C211.9,669.2,202.8,667.7,192.5,665.9z M828.7,1276.8
		c-2.4,0.1-4.4,0.1-6.4,0.3c-12.9,1.3-25.7,2.8-38.6,3.7c-9.5,0.7-9.5,0.4-10.9,9.8c-0.3,2.1-1,4.2-1.4,6.3
		c-1,5.1-1.9,10.2-2.9,15.2c0.9,0.4,1.2,0.7,1.5,0.7c20.5-1.7,41-3.4,61.5-5.2c0.8-0.1,2.3-2.1,2.1-3
		C832.2,1295.4,830.5,1286.2,828.7,1276.8z M726.5,1282.2c-17.3-1.8-34.3-3.6-51.3-5.5c-3.3-0.4-3.9,1.6-4.3,4.1
		c-0.6,3.6-1.2,7.2-1.8,10.8c-0.8,5.1-1.6,10.3-2.5,16.2c22.3,2,43.7,3.9,66,5.9C730.4,1302.3,728.5,1292.4,726.5,1282.2z
		 M671.9,222.7c16.5-1.5,32-3.4,47.5-4.2c6-0.3,7.7-2.8,8.5-7.9c1.2-7.8,2.8-15.4,4.4-23.4c-1.5-0.1-2.3-0.3-3.1-0.2
		c-19.8,1.7-39.7,3.3-59.5,5.2c-1,0.1-2.3,2.2-2.6,3.6c-0.3,1.3,0.5,2.9,0.8,4.3C669.2,207.5,670.6,215.1,671.9,222.7z M192.5,833.6
		c10.6-1.8,20-3.3,29.4-5c0.7-0.1,1.6-2.2,1.5-3.4c-0.3-4-1.1-7.9-1.4-11.8c-1.2-13-2.4-26.1-3.6-39.5c-10.1-2-20.4-4.1-31.8-6.3
		C188.5,789.8,190.4,811.2,192.5,833.6z"/>
	<path class="st0" d="M85.5,774.8c-7.9,3.4-15.8,6.7-23.6,10.1c-15,6.3-29.9,12.5-44.8,19.1c-3.4,1.5-6.2,4.2-9.4,6.5
		c0-9.8,0-20.4,0-32.5c0.7,1.9,1,2.4,1.1,3.1c0.6,4,2.7,5.6,6.6,4.1c10-4,19.9-8.1,29.9-12.2c4.4-1.8,8.7-3.7,13.1-6.8
		c-5.4-2.2-11.3-3.6-16.2-6.6c-9.1-5.6-17.3-3.9-25.9,0.8c-4.3,2.3-8.1,4.8-7.9,10.9c-0.4-0.2-0.9-0.5-1.3-0.7c0-11.8,0-23.5,0-36.7
		c0.8,2.8,0.7,4.8,1.7,5.8c1.3,1.3,3.7,2.9,5,2.4c13.6-5.1,27-10.6,40.5-16c0.5-0.2,0.9-0.8,2-1.7c-9.8-3.6-19.1-6.9-28.3-10.3
		c-3.1-1.1-6.2-2.3-9.4-3.3c-6.5-2.2-8.5-1.1-12.1,7.5c0-7.3,0-13.5,0-18.5c3.2,2,6.6,4.8,10.5,6.2c21.3,8,42.8,15.7,64.2,23.5
		c1.3,0.5,2.6,1.2,5.3,2.5c-17.4,7.1-33.6,13.7-49.8,20.2c0,0.4,0,0.8,0,1.3c16.3,6.7,32.7,13.3,49,20
		C85.5,773.7,85.5,774.3,85.5,774.8z"/>
	<path class="st0" d="M1417.5,715.7c2.9,9.3,4,10,13.6,10.2c16.6,0.2,33.3,0.7,49.9,0.9c10.1,0.1,11-0.7,13-10.6
		c0,21.1,0,42.1,0,63.4c-8,0-15.3,0-22.7,0c6.4-3.1,14.5-4.3,16.5-12.5c1.7-7,2-14.3,3-22.1c-11.5,0-21.9,0-32.6,0
		c-1.1,12.4,8.3,14.6,17.1,17.6c-12.9,0-25.9,0-38.8,0c-0.2-0.4-0.4-0.7-0.6-1.1c9.4-2.1,19.2-3.8,18.4-17.4
		c-9.6,0-19.2-0.2-28.8,0.2c-1.5,0.1-4.1,2.6-4.2,4.2c-0.6,7.2-1.2,14.6,2.2,21.5c2.7,5.6,7.1,9.1,12.5,11.6
		c1.6,0.7,3.2,1.4,4.5,3.3c-7.8-1.2-15.5-2.5-22.9-3.7C1417.5,758.9,1417.5,737.3,1417.5,715.7z"/>
	<path class="st0" d="M775.8,52c0-12.2,0.2-24.5-0.1-36.7c-0.1-4.4-2.9-7.3-7.8-7.5c-0.9,0-1.8-0.5-2.6-1.5c8.1,0,16.2,0,24.4,0
		c0,0.3,0.1,0.5,0.1,0.8c-0.7,0.2-1.3,0.6-2,0.7c-6,1.2-7.9,3.3-7.9,9.5c-0.1,12.2-0.2,24.3-0.2,36.5c0,10.1,0,20.1,0,30.2
		c-0.6,0.2-1.1,0.4-1.7,0.5c-17.2-21.3-34.4-42.6-52.4-64.9c-0.3,2.5-0.5,3.7-0.5,5C725,38.4,725,52.3,725,66.1
		c0,11.3,1.2,12.9,11.7,16c-8.7,0-17.5,0-26.2,0c10.1-3.3,11.3-4.9,11.3-15.8c0-15.5,0.1-31,0.1-46.5c0-6.8-2.4-10-9-12.3
		c-0.5-0.2-1-0.6-1.4-1.7c8.2,0,16.4-0.2,24.7,0.2c1.4,0,2.9,1.9,3.9,3.2C751.1,23,762,36.8,773,50.6c0.5,0.6,0.8,1.4,1.2,2.2
		C774.7,52.5,775.2,52.3,775.8,52z"/>
	<path class="st0" d="M727.1,1496.5c0-9.3,0-17.1,0-25c0.2-0.1,0.4-0.2,0.7-0.2c0.4,0.9,0.8,1.8,1.1,2.8c3.2,12,15.7,19.9,26.4,16.9
		c4.5-1.3,7.8-4.1,8-8.4c0.1-3.2-1.6-7.5-4.1-9.4c-4.9-3.9-10.8-6.3-16.2-9.6c-4.5-2.7-9.2-5.3-13.4-8.5c-7.4-5.9-9.5-13.8-7-22.7
		c2.7-9.4,9.5-14.4,18.7-16.5c6.7-1.6,13.3-0.8,19.5,2c5.3,2.4,9.8,3.2,13.3-3.5c0.3,0.3,0.6,0.6,0.9,0.9c0,4.7,0,9.5,0,14.2
		c0,4.6,0,9.2,0,13.8c-0.3,0.1-0.7,0.2-1,0.2c-1.1-2.9-2-5.9-3.2-8.8c-4.3-10.4-13.4-16.2-24.6-15.9c-5.4,0.2-10.2,3.5-11.8,8.4
		c-1.6,5.2,0.5,9.5,4.4,12.3c4.9,3.6,10.7,6,15.8,9.4c5.8,3.9,12.5,7.5,16.6,12.9c9.8,12.8,0.8,31.3-15.3,33.1
		c-6.5,0.8-12.5-0.3-18.3-3.1C731.2,1488.8,730.9,1488.9,727.1,1496.5z"/>
	<path class="st0" d="M313.8,1054.4c1.5-5.9,2.9-11,3.9-16.1c0.3-1.4-0.3-3.2-1.1-4.5c-19.8-30.4-36.4-62.5-49.5-96.3
		c-12.3-31.7-21.8-64.2-27.1-97.9c-2.8-18-4.7-36.1-6.9-54.2c-0.3-2.6,0-5.3,0-8.6c6.1,1.1,11.9,2.1,17.6,3.2c23,4.6,46,9.3,69,13.8
		c3,0.6,4,1.7,4.4,4.8c7.7,64.4,29.4,123.8,64.8,178.1c0.4,0.7,1,1.3,1.2,1.6c1.5-3.3,2.8-6.7,4.6-9.8c1.5-2.6,1.5-4.6-0.2-7.3
		c-23.2-37.4-40.1-77.5-49.9-120.5c-2.2-9.9-3.7-19.9-5.8-29.8c-0.5-2.2-1.5-4.5-3-6.1c-16.5-17.7-33.1-35.2-49.8-52.6
		c-1.4-1.5-4.4-2.2-6.6-2.2c-48.2-0.1-96.3-0.1-144.5-0.1c-3.1,0-6.3,0-9.4,0c0-0.4-0.1-0.7-0.1-1.1c8.2-1.7,16.4-3.4,24.6-5
		c37.1-7.4,74.1-14.7,111.2-22c2.6-0.5,4.6-1.1,3.2-4.9c-10.2,2-20.3,4-31.6,6.3c6.7-113.6,44.7-214.7,116.9-301.7
		c96.8-116.7,221.9-179,374.2-189.9c-6.7,33.9-13.2,66.9-19.4,98.4c-24.3,5.1-47.8,8.8-70.6,15.1
		c-146.5,40.3-263.1,155.5-300.4,305.2c-4.2,16.9-6.4,34.2-9.3,51.4c-0.5,2.8-1.3,3.8-4.2,4.3c-14.3,2.6-28.6,5.4-42.9,8.2
		c-0.6,0.1-1.1,0.6-1.8,1c2,3.7,5.2,2.9,8.3,2.3c12.2-2.5,24.4-5,36.5-7.4c0.8-0.2,1.6,0,2.7,0c-0.3,6.2-0.6,12.3-0.9,18.4
		c-0.3,6-0.5,12-1,17.9c-0.1,1.5-1.3,3-2.4,5.4c4.3,3.6,9.5,8.1,15.4,13.1c0.2-1.9,0.3-3,0.3-4c-4.4-184.7,114.3-339.5,278.8-396
		c33-11.3,66.8-18.7,101.6-21.1c5.5-0.4,9.4-2.1,12.2-7.3c5.1-9.5,12.4-17.2,20.7-24.1c1.5-1.3,2.3-4.2,2.3-6.4
		c0.1-58,0.1-116,0.1-174c0-2.4,0-4.9,0-7.3c0.5-0.1,1-0.1,1.6-0.2c11.2,56.7,22.5,113.3,33.7,169.9c3.8,0.1,4.2-0.2,3.5-3.5
		c-3.1-15.6-6.3-31.1-9.4-46.7c-0.8-3.8-1.3-7.7-2-12.3c125,7.7,233.7,52.6,324.8,137.2c102.5,95.2,156.9,213.7,166.3,354
		c-8.3-1.6-15.5-3-22.7-4.4c-21.4-4.3-42.7-8.6-64.1-12.7c-2.7-0.5-3.5-1.5-3.8-4.1c-9.5-80.5-40.3-152.1-91.3-214.9
		c-28.2-34.6-61.2-64-98.7-88.2c-22-14.2-45-26.2-69.1-36.4c-30.4-12.9-62.1-21.4-94.5-27.3c-1.1-0.2-2.3,0-3.7,0
		c0,4.1,0,8.1,0,12.3c11.1,2.5,22.2,4.7,33.3,7.4c38,9.3,74.2,23.4,107.8,43.3c94.7,55.8,159.3,135.7,190.3,241.6
		c5.8,19.8,8.8,40.5,12.3,60.9c4.5,26.1,4.3,52.4,2.4,78.7c-1.5,21.2-4.8,42.2-9.8,62.9c-24.5,100.5-80.1,179.7-163.8,239.7
		c-3.2,2.3-4.9,4.7-4.3,8.9c4.9-3.6,9.8-5.9,15.6-2.1c0.7,0.4,2.7-0.8,3.8-1.6c50.7-37.3,91.4-83.3,121.7-138.5
		c17.6-32,31.1-65.7,39-101.4c3.6-16.3,6.1-32.9,8.9-49.4c0.4-2.6,1.3-3.5,3.9-4c21.3-4.2,42.6-8.5,63.9-12.8
		c7.2-1.4,14.4-2.8,22.6-4.4c-8,125.5-53.3,234.2-138,326c-109.8,118.9-249.1,160.8-353,164.8c1.3-7,2.6-13.9,4-20.8
		c4.8-24,9.7-47.9,14.4-71.9c0.3-1.4-0.9-4.2-1.9-4.6c-14.8-5.1-29.8-8.5-45.4-3.2c-1.9,0.6-3.7,1.4-5.6,2.2c-0.6,0.2-1,0.7-2.3,1.6
		c3.9,0.2,6.9,0.3,10.4,0.5c0,8.4,0,16.7,0,25.1c1.1,0.2,1.7,0.4,2.3,0.4c3.6-0.2,7,0.5,7.7,4.6s1.1,9.1-3.9,10.6
		c-6.2,1.8-6.2,5.9-6.1,11c0.1,48.3,0.1,96.7,0.1,145c0,2.5,0,4.9,0,7.4c-0.4,0.1-0.9,0.1-1.3,0.2c-1.1-5-2.4-10-3.4-15
		c-4.1-20.3-8.1-40.6-12.1-60.8c-4.7-23.9-9.5-47.7-14-71.6c-0.6-3-1.3-4.4-4.7-2.5c2.7,13.8,5.4,27.7,8.2,42.3
		c-9-0.6-17.5-0.7-25.7-1.9c-21.8-3.3-43.7-6.1-65.1-11c-65.4-14.8-125.5-42-180.3-80.6c-7.6-5.3-15.3-10.7-22.2-16.7
		c-5-4.4-9.2-2.1-13.7-0.1c-5,2.2-8.1,5.9-7.9,11.6c0.1,2.4,1,4.7,1.7,7.9c3.3-3.7,6-6.8,8.6-9.7c17.7,12.4,35.1,24.7,52.9,37.2
		c-4.5,7.7-9.1,15.8-13.7,23.8c-1.8,3.2-3.8,1.7-5.7,0.4c-10.5-7-20.9-14.1-31.5-21c-2.1-1.3-4.7-1.8-7.1-2.6
		c-0.3,0.6-0.6,1.3-0.9,1.9c10.3,7,20.6,14.2,31.1,21c44.2,28.7,91.7,50.4,142,65.7c28,8.5,56.5,15.1,85.7,18.4
		c19.3,2.2,38.7,3.5,58,5c2.4,0.2,4,0.5,4.4,3.5c0.7,4.9,1.9,9.7,2.9,14.4c-8.3,0-16.2,0.5-24.1-0.1c-12.1-0.9-24.1-2.1-36.1-3.8
		c-15.9-2.3-31.7-4.7-47.5-7.8c-51.5-10.3-100.3-28-147-52c-40.6-20.9-78.2-46.3-112.9-76c-8.2-7-16.9-13.4-24.9-20.6
		c-5-4.5-9-10.2-13.8-15.1c-51.3-53.1-91.4-113.6-120.3-181.5c-12.1-28.5-22.3-57.8-29.1-88c-5.2-23.2-9.1-46.8-12.4-70.3
		c-2.3-16.6-2.8-33.4-4.1-50.1c-0.1-1.6,0-3.3,0-5.9c5.7,1,11,1.9,16.2,3.1c0.8,0.2,1.6,2.2,1.7,3.5c1.4,17,1.8,34.2,4.3,51.1
		c3.5,23.2,7.6,46.4,13.3,69.2C221,973.2,258.8,1047,313,1112.4c4.8,5.8,9.7,11.3,15.3,17.8c0.5-5,0.9-9,1.3-12.9
		c1-8.9,3.2-17.3,8.7-24.6c1.7-2.2,3-4.8,4.2-7.3c4.6-9.5,4.3-10.6-3.8-18.9c-3.3,5-3.6,10.6-3.8,16.1c-0.5,9.4-1.9,10.7-11,10
		c-1.7-0.1-3.6,0.6-5.1,1.6c-2.4,1.5-4.2,3.8-6.6,5.2c-1.2,0.7-3.9,0.7-4.5,0c-13.1-17.9-26.1-35.9-39.5-54.6
		c9.6-5.4,17.9-10.2,26.4-14.7c0.8-0.4,3.2,0.9,3.9,2C303.8,1038.9,308.6,1046.5,313.8,1054.4z M604.4,550.8
		c-0.9,0.1-1.7,0.3-2.5,0.3c-23.5-0.4-43.3,8.2-59,25.4c-7.4,8-13.5,17.3-19.7,26.3c-13.7,19.8-28,38.9-46.8,54.2
		c-13.5,11-28.9,18.8-44.3,26.8c-17.3,8.9-34.4,18.4-46.7,34.2c-9,11.5-14.1,24.6-16.1,39c1.2-1.2,2.1-2.5,2.9-3.9
		c10.4-17.2,22.9-32.6,39-45c16.7-12.8,36.1-15.5,56.2-17.5c15.6-1.6,31.2-4.4,46.5-8c17.1-4.1,31.7-12.7,40.7-28.8
		c2.3-4,5.5-7.6,8.9-10.7c8-7.4,16.8-13.6,28.6-13.4c3.7,0.1,5,1.3,4.9,5c-0.2,9.7-0.3,19.3-0.1,29c0.1,4.1-1.6,6.2-4.9,8.2
		c-50.5,30.8-101,61.7-151.5,92.6c-2.7,1.6-5.7,3-8,5.1c-1.4,1.3-1.5,3.8-2.3,5.7c1.9,0.2,3.9,0.7,5.7,0.5c1.4-0.2,2.6-1.4,3.8-2.2
		c50.1-30.6,100.1-61.2,150.2-91.8c1.9-1.2,3.9-2.2,6.1-3.4c1.7,4.5-1.5,5.4-3.8,6.8c-48.1,29-96.2,58-144.4,86.8
		c-3.4,2-5.7,4.4-6.5,8.3c-1.3,6.5-3.4,12.9-4.1,19.4c-1.9,18.3,2.3,34.6,16.9,47.2c4,3.4,7.7,4.5,13.1,2.8
		c28.3-8.7,56.6-16.9,85-25.3c1.9-0.6,3.9-0.9,5.9-1.4c0.2,0.5,0.4,1,0.6,1.6c-1.6,0.8-3.1,1.8-4.8,2.3
		c-28.9,8.3-57.8,16.6-86.7,24.9c-4.5,1.3-9,2.6-13.3,4.3c-1.2,0.5-1.8,2.5-2.7,3.8c1.5,0.6,3.1,1.4,4.7,1.8
		c0.5,0.1,1.2-0.5,1.8-0.6c30.6-8.8,61.2-17.5,91.8-26.3c1.4-0.4,2.9-0.6,5.3-1c-3.9,10-7.2,19-11,27.8c-0.6,1.5-2.7,2.9-4.4,3.3
		c-11.2,2.9-22.6,5.4-33.8,8.1c-8.7,2.1-17.4,4-26.1,6.3c-1.5,0.4-2.9,1.9-3.8,3.3c-0.4,0.6,0.7,2.9,1.4,3.1c1.7,0.5,3.6,0.4,5.3,0
		c25.7-6,51.3-12.2,76.9-18.3c12.1-2.9,24.1-5.7,36.2-8.6c2.3,4.6-0.3,5.5-3.6,6.2c-25.1,5.6-50.1,11.2-75.2,16.9
		c-10.5,2.4-21.1,4.8-32.7,7.4c16.3,11.4,31.8,22.2,49.3,29c25.8,10.1,49.5,23.7,71.4,40.4c19.3,14.8,37.3,31.2,56,46.7
		c13.6,11.2,27.6,22,44.2,28.7c3.6,1.4,7.4,2.2,12,3.6c-14.6-38.1-19.8-75.9-11.9-114.7c8-39.6,29.5-71,60.2-96.8
		c-44.7,10-89.3,20.1-134,30.1c-1.9-5.9,1.9-6.4,5.3-7.2c34.8-8.3,69.7-16.6,104.5-24.9c20-4.7,40-9.4,60-14.1
		c2.1,7.5,1.5,8.6-5.6,10c-3.7,0.7-7.5,1.4-11.2,2.2c-4.6,0.9-8.7,2.8-11.2,7.7c9.7-2.1,19-4.2,28.3-6.2c0.4,0.6,0.7,1.2,1.1,1.8
		c-1.3,1.1-2.3,3-3.8,3.3c-6.8,1.7-13.6,3.1-20.4,4.2c-7.2,1.2-13.4,3.6-17,11.1c13.6-2.8,26.8-5.6,40.4-8.5c0,7.9,0,15.3,0,22.9
		c-13.7,2.2-27.1,4.3-40.5,6.4c-8.1,1.3-16.8,1.3-20.7,10.9c0.8,0,1.4,0.1,2.1,0c27.7-4.4,55.4-8.7,83.1-13.2
		c40.5-6.5,80.9-13.2,121.4-19.6c40.6-6.5,81.3-12.8,122-19.2c2.8-0.4,6.8-0.5,6.3-4.7c-0.5-4.8-4.7-2.9-7.6-3c-0.5,0-1,0.2-1.5,0.3
		c-7.5,1.2-15.1,2.4-22.6,3.6c-21.8,3.5-43.6,6.9-65.4,10.4c-23.4,3.8-46.8,7.7-70.3,11.3c-1.2,0.2-3.7-1.2-3.9-2.2
		c-1.7-6.9-2.8-14-4.3-20.9c-0.7-3.2,0.8-4,3.5-4.6c25.5-5.3,50.9-10.7,76.4-16.1c12.8-2.7,25.6-5.3,38.5-8.1
		c2.7-0.6,5.6-1.4,4.6-5.1c-0.9-3.2-3.4-2.7-6.1-2.1c-7.6,1.8-15.3,3.2-22.9,4.8c-30.3,6.5-60.6,13-90.9,19.3
		c-1.9,0.4-4.8,2-5.8-1.7c-0.9-3.7,1.9-3.8,4.4-4.4c23.1-5.2,46.2-10.5,69.3-15.8c7.3-1.7,14.5-3.4,21.5-5
		c-10.4-9.4-21.2-18-30.5-27.8c-33.3-35-45.5-76.9-38.4-124.4c4.6-31.5,16.4-60.4,33.3-87.3c0.6-1,1.1-2.1,2.2-4.2
		c-35.4,17-69.8,33.5-104,50c-3.4-4.6-1.2-6.4,2.5-8.3c42.8-21.2,85.4-42.6,128.2-64c2.7-1.3,6.2-2.6,4-6.4c-2-3.4-4.9-1.1-7.5,0
		c-0.5,0.2-0.9,0.4-1.3,0.7c-41,20.5-81.9,40.9-122.9,61.4c-2,1-4.1,1.8-6.3,2.8c-3.3-10-3.2-20.2-7.9-29.2
		c-0.8,1.9-0.8,3.7-0.5,5.4c1.4,7.3,3.1,14.6,4.3,22c0.3,1.5-0.5,4.2-1.6,4.8c-9.5,5.1-19.2,9.8-28.9,14.6c-0.7,0.3-1.6,0.1-2.9,0.2
		c0-9.6,0.3-18.9-0.1-28.1c-0.2-4.3,1.4-6.4,5.1-8.3C870.6,527,922.1,500,973.6,473c2.6-1.4,7.6-2.1,5.5-6.6
		c-2.4-4.9-6.1-1.2-8.8,0.2c-50.2,26.2-100.4,52.4-150.6,78.7c-1.5,0.8-3.1,1.4-4.6,2.1c-0.4-0.5-0.8-1.1-1.2-1.6
		c1.4-1.3,2.6-3,4.3-3.9c25.7-14.3,51.4-28.5,77.2-42.8c11.6-6.4,23.1-12.9,33.9-18.8c-5.6-9.3-11.8-17.8-16.1-27.2
		c-10.4-22.7-9.9-46.4-4.6-70.3c0.7-3,0.2-4.2-2.6-5.1c-5.3-1.8-10.7-3.7-15.8-6c-3.8-1.7-6.4-0.8-9.4,1.6
		c-20.5,16.5-41,32.9-61.6,49.3c-1.3,1.1-2.9,1.9-4.3,2.8c-0.5-0.4-1-0.8-1.5-1.2c1.2-2.2,1.9-5.1,3.7-6.6
		c13.4-11.2,27.1-22,40.7-33c6.7-5.4,13.3-10.8,20.6-16.8c-4.6-0.9-7.7-4-11.9-0.4c-12.5,10.5-25.2,20.6-37.9,30.9
		c-4,3.2-8.2,6.3-12.3,9.4c-0.4-0.3-0.9-0.5-1.3-0.8c0-43.6,0-87.2,0-130.8c-0.7,0-1.4-0.1-2.2-0.1c0,7.3,0,14.7,0,21.9
		c-5.2,0.6-9,1-12.7,1.5c-30.5,3.6-54.9,16.8-70.6,44.3c-5.3,9.4-11.6,18.2-18.1,26.9c-12.3,16.5-30.5,22.3-49.6,25.8
		c-16.4,3-32.5,6.7-46.9,15.6c-28.4,17.6-45.5,43.6-55.8,74.7c-0.8,2.5-1.4,5.1-2.1,7.6c1.3-1,1.8-2.2,2.4-3.4
		c6.2-13.4,13.6-25.9,23.9-36.6c13.6-14.1,29.7-21.1,49.6-19.9c24.1,1.5,48.2,2.7,72.3,2.7c16.2,0,31.8-3.6,43.1-17.1
		c1.9-2.3,4.4-4.1,6.7-6c10.9-9.4,22.9-15.9,37.9-14.7c9.3,0.7,9.5,0.6,9.6,9.7c0,1.8-0.2,3.7,0,5.5c0.4,3.4-1.1,5.6-3.7,7.6
		c-44.9,36.1-89.7,72.3-134.6,108.4c-2.6,2.1-4.8,4.3-2.5,7.4c2.4,3.2,5.1,0.8,7.3-1c38.2-30.8,76.4-61.7,114.7-92.5
		c5.9-4.7,11.8-9.4,17.8-14.1c2.1,4.4,0.2,6.5-2.5,8.7c-40.1,31.9-80.3,63.8-120.3,95.9c-5.1,4.1-10.3,8.8-12.8,15.2
		c-12,30.2-24.3,60.4-35.1,91c-4,11.3-12.4,15.5-22.5,21c0-40.4,0-79.8,0-119.2c-0.8-0.1-1.6-0.2-2.4-0.2
		C605.3,544.7,604.9,547.5,604.4,550.8z M445,1085.4c-14.7-5.6-31.4-21.7-40.4-39c-0.9-1.8-1.9-3.5-3.1-5.1
		c-14-18.7-38.5-25.2-60.8-16.1c-13.4,5.5-20.9,15.6-20.6,30c0.2,9.2,2.5,18.3,4.2,27.4c0.3,1.5,2.3,2.8,3.5,4.1
		c0.7-1.6,1.6-3.2,2-4.9c1.5-6.6,2.3-13.3,4.4-19.7c0.6-2,4.4-3.8,7-4.1c5.6-0.6,10,3.7,10.7,9.5c1.3,10.6-3.1,19.5-8.5,28
		c-1.5,2.4-3.4,4.7-4.3,7.3c-7.6,22.2-6.6,43.7,6.9,63.4c15.4,22.3,39,29.9,64.2,33.8c1.2,0.2,3-0.5,3.8-1.4
		c0.5-0.5-0.4-2.4-0.9-3.5c-2.8-6-6.4-11.7-8.5-17.9c-4.8-13.9,0.1-23.2,14.2-27.2c10.4-2.9,20.8-1.4,31,1.4
		c26.4,7.1,49.6,20.6,71.8,35.8c14.2,9.7,29.4,17.3,45.8,22.7c38.9,12.9,78.9,16.3,119.6,13.1c22.3-1.8,43.9-6.6,64.6-15.3
		c1.6-0.7,2.7-2.7,4-4.2c-1.7-0.6-3.4-1.4-5.2-1.7c-7.5-1.2-15.2-1.5-22.5-3.5c-6.8-1.9-8.9-6.4-7-13.2c1.1-4.2,3.3-8.4,6-11.8
		c5.4-6.6,12.9-10.3,21.2-12.5c16.3-4.2,32-1.4,47.7,3.4c30.2,9.3,60.8,12.5,92,6.6c47.3-8.9,83.3-34.9,111-73.5
		c0.9-1.2,0.6-3.2,0.9-4.8c-1.6,0.3-3.5,0.2-4.8,1.1c-32.9,22.7-68.8,28.3-107,18.3c-18.4-4.8-36.3-11.4-54.7-16.5
		c-13.1-3.6-26.7-6.7-40.3-3.5c-11.1,2.6-22.1,6.1-32.5,10.5c-21.6,9.2-43.9,14.4-67.4,13.1c-7.8-0.4-15.8-2.3-23.1-5
		c-7-2.5-8.4-8.1-4.9-14.6c2.3-4.4,4.9-8.8,8-12.6c7.5-9,16.7-15.6,29-12.3c6.2,1.7,11.5,6.2,17.4,9.2c1.4,0.7,3.2,0.7,4.8,1
		c-0.2-1.5,0.1-3.3-0.6-4.5c-8.5-14.7-20.2-25.4-37.3-29.2c-13.9-3-27.2-0.2-39.7,5.8c-19.6,9.4-38.6,20-58.3,29.3
		c-10.3,4.8-21.2,8.7-32.2,11.5c-14,3.5-29.1-3-36.4-14.1c-4.9-7.5-5-15.4-1.1-23.2c3.4-6.7,8.7-11.5,16.5-12.1
		c11.8-0.8,26,9.2,29.7,20.4c0.4,1.2,1.5,2.3,2.3,3.4c1-1.1,2.7-2.1,2.8-3.4c0.9-6.2,1.9-12.5,1.9-18.7
		c-0.1-14.6-8.5-26.4-22.5-30.7c-7.2-2.2-14.9-3.2-22.5-3.6c-16.9-0.9-32.9,2.1-46.2,13.6c-10,8.6-17.4,19.3-22.9,31.1
		C453.4,1066.3,449.3,1075.8,445,1085.4z M1028.5,839c-1.1,0-1.9-0.1-2.8,0c-23.8,3.6-47.6,7.2-71.4,10.8
		c-25.9,3.8-51.9,7.5-77.9,11.3c-24,3.5-47.9,7.2-71.9,10.7c-21.7,3.2-43.3,6.6-65,9.6c-3.5,0.5-5.2,2-6.7,4.9
		c-10.7,21.4-15,44.3-15.8,67.9c-1.1,29.2,4.1,57.6,13,85.3c0.7,2.1,2.6,4.3,4.5,5.5c9.2,5.6,18.6,11,28.1,16.1
		c13.1,7.1,26.1,14.5,40.7,18.3c11.7,3.1,23.2,6.6,34.6,10.5c10.5,3.7,20.5,8.6,31,12.3c25.2,8.8,51,13.8,77.8,8.5
		c3.8-0.8,7.5-1.8,11.9-2.8c-1.7-2-2.5-3-3.4-4c-1-1.2-2-2.3-2.8-3.5c-29.9-41.1-36.1-85.9-20.1-133.7c12-35.9,33.8-65.8,59.8-92.7
		C1003.7,862.1,1016.1,850.9,1028.5,839z M1147.7,853.6c-4,0.4-7.9,0.8-11.8,1.2c-16.5,1.8-33,3.5-49.5,5.3
		c-20.1,2.2-40.2,4.8-60.4,6.6c-9.9,0.9-17.7,3.3-24.7,11.8c-40.2,48.8-60.5,103.3-51.3,167c2.8,19.2,8.7,37.4,17.1,54.9
		c0.5,1.1,1.5,2.5,2.5,2.8c3.2,1,11.7-5.3,12.4-8.7c1.6-8.6,2.9-17.3,5-25.9c22.1-90,73.3-158.1,153.8-204
		C1145.3,862.2,1147.5,859.2,1147.7,853.6z M783.7,1079.5c0.2-0.5,0.4-1,0.6-1.4c-1.5-0.8-2.9-1.5-4.4-2.3
		c-16.4-8-33-15.7-49.2-24.1c-19.1-10-38.8-19.3-56.5-31.4c-23.2-15.8-44.5-34.4-66.9-51.3c-11.5-8.7-23.4-17-35.9-24.1
		c-11.4-6.4-23.9-10.7-35.9-16.1c-20.2-9.1-39.8-19.1-56.8-33.7c-18.8-16.2-37.7-32.3-56.6-48.3c-39.3-33.2-78.7-66.2-118.1-99.3
		c-8.9-7.4-17.8-14.8-26.6-22.3c-0.4,0.4-0.8,0.9-1.2,1.3c1.5,1,3.1,1.8,4.4,3c34,32.7,67.9,65.5,102,98
		c28.4,27.1,56.9,54.3,85.9,80.8c14.8,13.5,31.2,25,51.3,29.5c23.5,5.2,44,15.8,63.3,30.1c50.1,37.1,102.8,69.9,159.8,95.3
		C756.1,1069.2,770,1074.1,783.7,1079.5z M785.5,1085.9c-33.9-15.7-67.9-31.3-101.7-47c-11-5.1-22.3-9.6-32.7-15.7
		c-11-6.5-21.3-14.3-31.5-22c-27.7-21-57-39.1-90.5-49.6c-15.8-4.9-29.8-13-42.8-22.8c-12.3-9.4-24.2-19.2-34.6-27.5
		c0.7,10.4,1.7,22.5,2.3,34.7c0.2,3.3,1.8,3.6,4.4,4c11.6,1.7,23.4,2.9,34.8,5.7c34.1,8.6,64.5,25.3,93.9,44
		c26.1,16.6,51.8,33.8,77.8,50.5c2.6,1.7,6.1,2.7,9.3,2.7c19.2-0.1,34.2,8.1,46.2,22.6c2.2,2.7,5.2,5.3,8.3,6.8
		c11.9,5.4,24.3,9.9,36.1,15.7C772.6,1091.6,779,1090.2,785.5,1085.9z M660.6,1044.3c-26.3-16.7-51.8-33.5-77.9-49.4
		c-29.3-17.9-71.1-34.9-82.2-36.1c1.1,4.7,2.5,9.6,3.4,14.6c0.6,2.9,1.7,4.6,4.8,5.4c25.6,6.3,48.7,18,70.7,32.2
		c19.9,12.9,40.4,24.9,60.7,37.2c1.6,0.9,3.9,1.6,5.5,1.2C650.5,1048.1,655.2,1046.2,660.6,1044.3z M278.9,734.7
		c-0.2,0.2-0.3,0.3-0.5,0.5c0.7,0.8,1.4,1.7,2.1,2.4c12.7,13.5,25.4,26.9,38,40.4c33.1,35.6,66.2,71.2,99.2,106.9
		c12.9,14,17.8,31.3,19.1,49.7c1.6,22.7-1.2,45.2-6.5,67.2c-4.3,17.7-6.4,35.3-2.3,53.3c1.9,8.4,4.9,16.3,11.7,23.5
		c-2.2-5.6-4.4-10-5.8-14.7c-6-20.2-4.1-40.7,0.7-60.6c5.8-24.4,10.9-48.6,7.4-73.8c-3.3-23.9-11-46-28.5-63.4
		c-35.8-35.8-72-71.2-108.1-106.7C296.8,751,287.7,742.9,278.9,734.7z M635.5,1053.9c-1.3-0.9-1.9-1.5-2.6-1.9
		c-21.2-13.1-42.4-26.1-63.5-39.3c-19.2-12.1-39.5-21.6-61.6-27.2c-1.3-0.3-4,0.5-4.5,1.6c-1.9,4-3.2,8.2-4.3,11.2
		c13.4,3.6,27,7.7,40.8,10.9c11.3,2.6,20.4,7.9,29.3,15.5c15.2,12.8,32.1,23.5,48.4,35.1c1.1,0.7,2.9,1.5,3.9,1.1
		C626,1058.9,630.5,1056.4,635.5,1053.9z M585.2,1080.4c-6.7-3.5-10.3-10.4-18.4-7.9c-1.2,0.4-4.3-1.7-4.5-3c-1-5.6-5.5-7.1-9.6-9.2
		c-5.2-2.6-10.4-5.1-15.7-7.4c-7.7-3.4-11.2-2.2-15,5.6c-1.1,2.3-1.9,5-2.1,7.6c-0.7,10.7,6.9,20.4,18.8,23.7
		C555.2,1094.3,569.6,1087.5,585.2,1080.4z M973.7,411.2c-0.5,0.3-1,0.6-1.5,0.9c61.2,134.6,122.4,269.1,183.7,403.7
		c0.5-0.2,1.1-0.4,1.6-0.6c-0.7-2.8-1-5.8-2.2-8.4c-12.4-27.5-25-55-37.5-82.5c-46.4-102.1-92.9-204.2-139.4-306.2
		C977.3,415.7,975.3,413.6,973.7,411.2z M342.4,451c2.6,0.3,5,0.2,7.2,0.9c6.7,2,13.2,4.2,19.8,6.4c9.5,3.1,18.9,6.3,29.5,9.9
		c-5.8-11.8-11-22.3-17-34.3c12.5,4.3,23.5,8.2,35.9,12.5c-6.6-12.1-12.6-22.8-18.4-33.6c-3.2-5.9-6-12.1-9.1-18.2
		c-1.5,1.9-3.5,4.3-5.5,6.7c4.5-1.9,6.2,1.3,7.9,4.2c2.6,4.4,5,8.9,7.4,13.4c1.7,3.1,3.2,6.2,4.9,9.3c-0.3,0.4-0.6,0.8-0.9,1.2
		c-9.5-3.5-19.1-7-28.5-10.8c-1-0.4-1.3-2.8-1.9-4.5c-4.1,4.9-8.5,10-13.1,15.5c12.5-3.1,23,5.8,26.9,22.6
		c-9.7-3.3-19.1-6.2-28.3-9.8c-2.1-0.8-3.4-3.5-5.1-5.5C350.7,441.2,346.5,446.3,342.4,451z M1015.9,863c2.7-0.2,4.7-0.2,6.6-0.5
		c20.1-2.5,40.2-5.2,60.3-7.6c20.3-2.5,40.6-4.8,60.8-7.4c7.5-1,8.1-2,8.1-10.6c-4.6,0.6-9.2,1.3-13.7,1.9
		c-33.4,4.1-66.9,8.3-100.3,12.1C1028.8,851.8,1021.8,855,1015.9,863z M936.8,325.7c0.3-0.2,0.6-0.3,0.9-0.5c0.7,1,1.6,2,2.2,3.1
		c10.1,16.8,20.2,33.6,30.4,50.3c1.4,2.3,3.6,4,5.4,6c0.4-0.3,0.7-0.6,1.1-0.9c-0.7-1.3-1.5-2.5-2.2-3.8c-11.3-19-22.6-37.9-34-56.8
		c-1.9-3.1-2.1-4.9,1.3-7.3c6.1-4.3,11.7-9.3,17.5-14.1c2-1.7,3.9-3.6,1.6-6.3c-2.3-2.6-4.5-0.9-6.5,0.5c-0.3,0.2-0.5,0.5-0.7,0.7
		c-9.8,7.9-19.7,15.8-29.5,23.8c-10.4,8.4-20.8,16.9-31.4,25.5c7.9,3.7,7.9,3.7,13.9-1.3c1.9-1.6,3.9-3.2,5.8-4.7
		c6.4-5.1,12.9-10.3,19.7-15.7c1.2,2.5,2.1,4.2,2.9,6c5.9,13,11.8,26,17.8,38.9c0.9,1.9,2.7,3.3,4.1,4.9c0.4-0.3,0.7-0.6,1.1-0.9
		C950.8,357.3,943.8,341.5,936.8,325.7z M444,1073.1c3.6-7.1,5.9-12.6,9.1-17.6c1.6-2.5,1.6-4.3,0.7-6.8c-4.3-11.5-7-23.3-6.7-35.6
		c0.3-17.9,1.3-35.9,2.3-53.8c0.8-13.4-0.4-26.5-3.9-40.3c-0.3,1.2-0.5,1.6-0.4,1.9c3.7,19.9,1.9,39.6-1.8,59.4
		c-3.9,21-8.9,42.1-5.2,63.7C439.5,1053.5,441.8,1062.7,444,1073.1z M1106,447.8c6.2-5.5,12.5-11.1,19.6-17.3
		c-11.5,4.6-13,4.4-17.3-1.6c5.3-4.6,10.7-9.2,16.1-13.9c7,7.5,14.3,14.5,7,25.6c3.5-3,6.9-6.1,10.6-9.3
		c-8.9-10.2-17.7-20.2-25.7-29.3c-1.2,2.4-1.9,5.3-3.7,7c-7.7,7.3-15.7,14.3-23.8,21.2c-3.1,2.7-6.7,4.7-10.4,7.3
		c8.1,9.2,16.9,19.2,25.7,29.2c4.5-3,8.4-5.6,12.3-8.3c-10.5,3.6-18-0.5-23.9-8.6c-1.1-1.4-1.5-5-0.5-6c4.3-4.5,9.1-8.5,13.8-12.6
		C1111.2,436.9,1111.1,438.5,1106,447.8z M1089.3,1072.6c-5.5-10.2-1.8-18.2,5.5-25.5c1.9-1.9,3.8-2.6,6.1-0.7c4.6,4,9.2,7.9,14,12
		c-4.5,6.4-10,4.7-15.8,3c6,5.2,12,10.4,18.1,15.6c-4.8-8.3-5.5-12.1,0.1-16.5c5.2,4.5,10.6,9.2,15.9,13.7
		c-10.1,12.7-12.5,14-25,9.8c4.2,3.7,7.6,6.7,11.3,10c8.6-10,17.1-19.7,25.2-29c-9.5-2.1-14.5-9.8-21-15.2
		c-6.6-5.4-14.3-9.9-18.6-18.4c-8.7,10-17.2,19.9-25.7,29.8C1083,1065.4,1086.1,1069,1089.3,1072.6z M1157,691.4
		c0.5-0.2,0.9-0.4,1.4-0.6c-1.3-3.2-2.2-6.7-4-9.7c-19.9-33.5-39.9-67-59.9-100.5c-27.9-46.7-55.8-93.5-83.8-140.2
		c-1.5-2.6-3.9-4.7-5.8-7c-0.5,0.3-0.9,0.7-1.4,1C1054.7,520.1,1105.9,605.7,1157,691.4z M1045.5,406.6c-3.5-6.5-3.6-6.7,1.6-12.5
		c6.2-7,12.5-13.8,18.7-20.7c0.7-0.7,1.6-1.3,3-2.3c-1,19.1-1.9,37.2-2.9,55.4c10.4-10.2,19.8-20.5,29.1-30.9
		c2.8-3.2,5.7-6,10.8-4.5c-2.8-2.4-5.5-4.9-8.2-7.2c-1.7,11.9-11.9,16.8-18.2,24.8c-0.2-11.5,0.6-22.7,1.1-33.9
		c0.1-2.2,0.6-5.3-0.5-6.6c-3.3-3.8-7.4-7-11.7-10.8c1.5,7.5,1.5,8.1-3.1,13.3c-6.8,7.7-13.8,15.3-20.6,23
		c-2.8,3.1-6.1,4.5-10.3,2.8C1038,399.8,1041.8,403.2,1045.5,406.6z M442,418.4c-3.3-2.2-6.5-3.7-8.9-6c-3.9-3.8-7.4-8.1-11-12.2
		c-3-3.5-6-7.1-8.9-10.7c0.3-0.3,0.5-0.7,0.8-1c17.9,3,35.7,6,54.3,9.2c-0.9-1.3-1.3-2.2-1.9-2.9c-8.7-10-17.3-20.2-26.3-30
		c-3-3.3-4.3-6.4-2-11.7c-4.1,3.6-7.2,6.3-10.3,9c2.5,0.3,5.5-0.3,6.7,0.9c6.2,6.1,11.9,12.6,18.5,19.7c-2.5,0-3.5,0.2-4.5,0
		c-10.1-1.9-20.2-3.9-30.3-5.6c-2.5-0.4-5.7-0.9-7.5,0.3c-4.2,2.7-7.8,6.5-12.3,10.4c7.1-1.8,8.9-1.4,12.1,2.3
		c6.9,7.9,14,15.6,20.5,23.7c2.3,2.8,3.1,6.8,4.7,10.2C437.5,422.5,440.2,420.1,442,418.4z M1044.2,817.6c0.5-0.1,1-0.2,1.4-0.4
		c-24.5-97.5-49.1-194.9-73.6-292.4C969.2,528.5,1041,814.8,1044.2,817.6z M745.6,1104c-2.3-1-3.7-1.6-5-2.2
		c-16.2-6.8-32.4-13.6-48.6-20.6c-8.5-3.7-9.4-3.6-15.4,3.5c-1.1,1.3-2.1,2.9-3.3,4.6c1.8,0.9,3.1,1.8,4.4,2.3
		c12.7,4.8,25.6,9.1,38.1,14.4C726.1,1110.4,735.3,1108.2,745.6,1104z M1072.8,1067.8c-2.2,5-2.4,4.7-8.4,7.9
		c-3.3,1.8-6.5,4.2-8.7,7.2c-6.1,8.4-3.8,23.1,10.2,24.3c3.8,0.3,7.8-0.9,11.7-1.6c4.9-0.9,9.6-2.4,14.5-2.7
		c5.5-0.3,8.6,4.7,5.7,9.5c-1.6,2.7-4.6,5.8-7.5,6.3c-4.8,0.9-10,0-14-0.1c1.9,1.8,5.1,4.7,8.4,7.7c-0.7-4.9,3.6-4.2,6.4-5.4
		c6.5-2.9,11.3-7.3,11.7-14.8c0.4-5.9-2.3-10.7-7.7-13.4c-5.2-2.6-10.6-1.5-15.9-0.1c-4.8,1.3-9.6,2.7-14.5,3.1
		c-5.3,0.4-8.2-3.3-7.8-8.6c0.4-5.2,6-10.4,12.3-10.1c5.1,0.2,10.2,1.8,14.9,2.6C1080.6,1076,1076.7,1071.9,1072.8,1067.8z
		 M1237.1,825.6c-1.3,0.6-1.9,1-2.5,1.1c-16.1,2-32.3,4.1-48.4,6.1c-8.7,1-8.8,0.9-9.9,9.8c0.5,0.1,0.9,0.4,1.4,0.3
		c20.3-2.4,40.6-4.8,60.9-7.3c3.5-0.4,5.2-4.6,3.3-7.9c-6.5-11.3-13.2-22.6-20-33.8c-0.7-1.1-2.3-1.6-3.5-2.3
		c-0.2,0.4-0.5,0.7-0.7,1.1C1224,803.5,1230.4,814.3,1237.1,825.6z M613.2,1065.6c-13-9.2-25.4-18.1-38.3-27.3
		c0,7.7,0.3,14.8-0.1,21.8c-0.2,3.6,0.6,5.8,3.7,7.7c3.8,2.3,7.3,5.2,11.1,7.5c1,0.7,2.9,1.1,3.9,0.6
		C600,1072.7,606.4,1069.2,613.2,1065.6z M402.6,1033.5c5.7-2.7,11.6-5.4,18.2-8.4c0.5-4.1,1.1-9.2,2-14.2c0.5-3.1-0.9-4.1-3.4-4.9
		c-8.7-2.8-24.7,2.1-30.5,9.5c-2,2.5-1.2,6.7,1.5,8.7C394.5,1027.2,398.7,1030.4,402.6,1033.5z M453.5,973.7
		c6.9,0,13.7,0.1,20.5-0.1c1.3,0,3.2-1.1,3.7-2.1c2.7-5.6,5.1-11.4,7.9-17.7c-9.8-1.7-20.4-3.5-32.1-5.5
		C453.5,957.4,453.5,965.4,453.5,973.7z M510.2,1009c-18.5-3.5-36.6-3.4-54.1,3.9c0.7,4.2,1.2,7.8,2,11.3c0.3,1.2,0.8,2.8,1.7,3.4
		c3.7,2.4,12.4,1.1,15.8-2.1c7.9-7.5,17-12.5,27.6-14.9C505.6,1010.2,507.9,1009.6,510.2,1009z M452.4,979.9
		c0.9,9.6,1.7,17.5,2.4,25.3c9.4-2,18.2-3.9,26.4-5.6c-1.4-5.4-3.3-10.2-3.9-15.2c-0.5-3.6-2.3-4.4-5.2-4.5
		C465.9,979.9,459.8,979.9,452.4,979.9z M432.1,937.8c-3.6-10.9-7.2-21.7-10.7-32.6c-0.3,0.2-0.7,0.3-1,0.5
		c-2.1,12.2-4.3,24.5-6.3,36.4C419.4,940.8,424.8,939.5,432.1,937.8z M404.9,1039.1c5.7,10.6,11.3,20.8,20.5,28.5
		c-1.2-8.3-2.6-16.3-3.5-24.3c-1.1-9.6-2.1-9.7-11.8-7.2C408.2,1036.6,406.7,1038.1,404.9,1039.1z M765.1,1095
		c-12-4.8-23.9-9.6-34.8-13.9c-3.2,2.3-5.7,4.1-8.3,5.9c8.5,3.4,17.6,6.6,26.2,10.7C754.7,1100.8,759.9,1099.5,765.1,1095z
		 M709.9,1111.7c-13.6-5.5-26-10.6-38.6-15.6c-0.7-0.3-2.4,0.7-3,1.6c-3,4.5-1.4,8,4.8,10.6C684.6,1113,696.7,1112.2,709.9,1111.7z
		 M405.8,961c8.8-8.5,15.1-7.2,19.3,3.3c0.8,2,1.1,4.2,1.8,6.2c0.3,0.9,1.3,1.6,1.9,2.4c0.7-0.7,1.9-1.4,1.9-2.2
		c0.8-7.7,1.3-15.4,1.9-23C418.7,945.2,410.5,949.3,405.8,961z M388.1,1008.2c6.4-3.2,12.8-6.4,18.8-9.5c-1.8-4.7-3.8-9.9-5.8-15
		C391.7,986.2,387.7,994,388.1,1008.2z M907.4,351.5c3.5,1.4,6.2,2.4,9.3,3.6c2.5-5.5,4.9-10.6,7.2-15.7c-0.2-0.2-0.5-0.3-0.7-0.5
		C918.2,343,913.2,346.9,907.4,351.5z M695.1,1073.9c-0.1,0.4-0.2,0.9-0.3,1.3c7.5,3.2,15,6.4,22.4,9.6
		C711.2,1078,704.1,1073.9,695.1,1073.9z M413.5,999.5c1-3.3,4.2-6.3,0.5-9.8c-2.5-2.3-4.2-5.4-6.3-8.2c-0.4,0.2-0.8,0.4-1.2,0.6
		C408.8,988,411.2,993.7,413.5,999.5z M419.8,1000.4c1.8-0.2,4.2-0.1,4.4-0.6c1.9-6.1,3.5-12.4,5.1-18.6c-0.5-0.1-1.1-0.3-1.6-0.4
		c-0.9,3.2-1.6,6.5-2.8,9.6C423.6,993.6,421.8,996.5,419.8,1000.4z M395.5,979.2c7.8-2.2,5.1,0.1,7.9-14.6
		C400.6,970,398.2,974.3,395.5,979.2z"/>
	<path class="st0" d="M1336.7,736.3c-6.4-1.2-11.4-1.9-16.4-3.1c-1-0.2-2.2-1.9-2.3-3c-0.8-8.9-1-17.9-2.1-26.8
		c-2.1-17.5-3.7-35.1-7.1-52.4c-4.4-22.4-9.8-44.6-15.7-66.7c-7.5-28.1-18.8-54.8-31.3-81c-12.4-25.8-26.6-50.5-42.9-74.1
		c-19.4-28.1-41.1-54.4-65.2-78.7c-20.6-20.7-42.6-39.7-66-57.2c-27.1-20.2-55.9-37.6-86.1-52.6c-27.9-13.9-56.7-25.7-86.8-34.1
		c-17.3-4.8-34.7-9.7-52.2-13.4c-16.1-3.4-32.4-5.6-48.7-7.5c-14-1.7-28.1-2.3-42.2-3.1c-3.3-0.2-4.6-1.2-5.1-4.5
		c-0.6-4.6-1.8-9-3-14.5c138.3,4.6,260.9,49.6,365.6,139.2C1261.5,416.4,1329,561.7,1336.7,736.3z"/>
	<path class="st0" d="M1336.3,763.3c-5,146.1-54.8,274.1-153.2,381.3C1071,1266.7,930.3,1329.3,763.8,1336c1.2-6.4,2.2-12,3.5-17.5
		c0.2-0.7,2.1-1.4,3.2-1.5c17.9-1.4,35.8-2,53.6-4.3c17.9-2.3,35.6-6,53.2-9.7c26.8-5.7,52.9-13.8,78.5-23.8
		c52.6-20.7,101.3-48.2,145.8-83.2c50.4-39.7,92.9-86.6,127.4-140.6c26.1-40.8,47.1-84.2,61.4-130.5c7.2-23.3,12.8-47,18.2-70.7
		c2.9-12.7,3.9-25.8,5.3-38.8c1.6-15.3,2.7-30.6,4.1-45.8c0.1-1.2,1.1-3.1,2.1-3.3C1325.1,765,1330.3,764.3,1336.3,763.3z"/>
	<path class="st0" d="M737.3,163.5c-0.9,4-1.5,6.7-2.1,9.4c-2.3,9.8-2.3,9.6-12.5,10c-33,1.3-65.7,5.9-97.9,13.1
		c-41.3,9.3-81.1,23.2-119.3,41.6c-71.5,34.3-133.3,81.5-185,141.5c-47.4,55-83.1,116.9-106.8,185.7c-9.8,28.4-17.2,57.4-22.5,86.9
		c-3.1,16.9-4.4,34.2-6.2,51.3c-1,9.1-1.3,18.2-2.1,27.3c-0.1,1.1-1.3,2.8-2.2,3.1c-5,1.2-10,2-16.1,3.1
		c5-142.1,52.2-267.3,146.2-373.2C423.5,235.9,566.5,170.9,737.3,163.5z"/>
	<path class="st0" d="M1179.1,789.8c0.7-13.6,1.4-26.6,2.1-39.8c64.6,0,129.3,0,194,0c0,0.3,0.1,0.6,0.1,0.9
		C1310.1,763.8,1244.8,776.8,1179.1,789.8z M1196.2,754.5c-0.2,0.4-0.5,0.8-0.7,1.2c4,6.7,7.9,13.4,12,20c0.7,1.2,2.4,1.8,3.6,2.6
		c0.3-0.3,0.6-0.7,0.9-1c-4-6.8-8-13.6-12.2-20.3C1199,755.8,1197.4,755.2,1196.2,754.5z"/>
	<path class="st0" d="M1148.9,397.5c-5-5.3-9.4-10.4-14.2-15.2c-9.4-9.3-19-18.5-28.7-27.7c-2.5-2.3-3.1-4.2-0.5-7.1
		c5-5.5,9.7-11.3,14.3-17.2c2.2-2.8,4.3-3.4,7-0.7c14.4,14.4,28.9,28.8,43.2,43.2c2.7,2.7,2.6,5.2-0.8,7.8
		C1162.5,385.9,1156.1,391.5,1148.9,397.5z"/>
	<path class="st0" d="M1232.2,456.5c-1.1,0.4-2.2,0.7-3.2,1.3c-7.2,4-14.4,8-21.5,12.1c-2.5,1.5-3.9,1.2-5.6-1.3
		c-10.7-15.5-21.5-30.9-32.4-46.2c-2-2.8-2.1-4.9,0.6-7.1c6.1-5,12.2-10.1,18.2-15.3c2.5-2.2,3.9-0.7,5.3,1.1
		c3.8,4.8,7.8,9.5,11.3,14.5c8.4,12.1,16.5,24.3,24.7,36.6c0.6,0.9,1,2.1,1.5,3.1C1231.4,455.6,1231.8,456.1,1232.2,456.5z"/>
	<path class="st0" d="M1101.5,309.2c-0.9,1.4-1.5,2.5-2.3,3.5c-5.1,6.3-10.2,12.6-15.6,18.6c-0.7,0.8-3.4,0.8-4.4,0.1
		c-10.8-7.6-21.4-15.4-32.2-23.1c-5-3.5-10-7-15.3-10.1c-2.9-1.7-3.2-2.9-1.5-5.8c4.1-6.7,8-13.6,11.8-20.6c1.6-3,3.9-2.9,6.1-1.4
		c16.8,11.7,33.5,23.5,50.2,35.3C1099.4,306.7,1100.3,307.9,1101.5,309.2z"/>
	<path class="st0" d="M1274.9,544.2c-9.9,3.6-19.5,7.1-29.1,10.6c-5.4-12-10.5-23.8-16-35.5c-2.9-6.2-6.2-12.3-9.4-18.4
		c-2-3.7-1.8-6.1,2.4-8.2c6.6-3.3,13-7.1,19.3-10.8c2.6-1.6,4.2-1.1,5.5,1.6c9.1,19.6,18.2,39.2,27.3,58.8
		C1275,542.6,1274.9,543.2,1274.9,544.2z"/>
	<path class="st0" d="M1020.8,253.9c-5.4,9.2-10.1,17.1-14.6,25.1c-1.7,3-3.8,2.1-5.9,1.1c-17.4-8.1-34.8-16.2-52-24.5
		c-1.2-0.6-2.5-3-2.1-4c3.1-8.9,6.5-17.8,10.3-27.6C977.9,234,999.1,243.8,1020.8,253.9z"/>
	<path class="st0" d="M1004.5,1218.1c5.1,8.8,10.2,17.7,15.9,27.6c-21.3,10-42.1,19.7-63.7,29.9c-4.1-10.9-7.6-20.4-11.1-29.9
		C965.3,1236.4,984.5,1227.5,1004.5,1218.1z"/>
	<path class="st0" d="M930,215.8c-3.5,9.5-7,19.2-10.5,29c-12.1-3.4-24-6.9-35.9-10.1c-7.7-2.1-15.5-4.1-23.3-5.6
		c-3.4-0.7-3.6-2.5-3.2-4.9c1.2-7.6,2.6-15.2,3.9-22.7c0.5-2.6,1.8-4.3,4.7-3.5c21.3,5.8,42.6,11.6,63.8,17.3
		C929.6,215.2,929.7,215.4,930,215.8z"/>
	<path class="st0" d="M1272.1,643.7c-2-8-3.9-16.1-6-24.1c-3-11.4-5.9-22.8-9.5-34c-1.2-3.9-0.6-5.4,3-6.6c7.1-2.4,14.2-5,21.2-7.5
		c2.9-1,4.3-0.7,5.2,2.8c5.3,20.4,10.9,40.7,16.5,61c0.8,2.8-0.6,3.3-3,3.7C1290.6,640.3,1281.6,642,1272.1,643.7z"/>
	<path class="st0" d="M862.2,1303.2c-2-11.7-3.8-21.5-5.5-31.2c21-5.6,41.6-11.1,62.6-16.7c3.4,9.4,6.8,18.9,10.8,29.8
		C907.3,1291.2,885.2,1297.1,862.2,1303.2z"/>
	<path class="st0" d="M1272.7,856c10,1.8,20,3.6,31,5.6c-5.2,19.2-10.2,37.6-15.3,56.1c-0.6,2.4-1.8,4.6-2.1,7
		c-0.6,4.4-2.9,4.3-6.2,3c-7.2-2.8-14.6-5.3-21.8-8.1c-1.1-0.4-2.4-2.5-2.2-3.4c5.1-19.6,10.4-39.2,15.7-58.8
		C1272,857.1,1272.3,856.7,1272.7,856z"/>
	<path class="st0" d="M1218.3,1003.8c3.8-7.6,7.6-14.5,10.9-21.7c5.1-11,9.9-22,14.7-33.1c1.2-2.7,2.2-3.9,5.5-2.6
		c8.3,3.3,16.7,6.1,26.5,9.5c-9.9,21.3-19.7,42.3-29.8,63.9C1236.3,1014.2,1227.6,1009.2,1218.3,1003.8z"/>
	<path class="st0" d="M418.8,332.7c-5.9-7-11.6-13.9-17.5-20.7c-1.8-2-1.9-3.5,0.5-5.2c17.1-12,34.2-24.1,51.4-36
		c1-0.7,4.1-0.1,4.7,0.9c4.9,7.9,9.4,15.9,13.9,23.8C454.1,307.9,436.6,320.2,418.8,332.7z"/>
	<path class="st0" d="M480.8,1244.9c5.4-9.4,10.4-18.1,15.4-26.7c19.7,9.2,39,18.2,58.7,27.4c-3.3,9.2-6.8,18.6-10.4,28.7
		C522.4,1266.3,501.7,1256.2,480.8,1244.9z"/>
	<path class="st0" d="M224.9,543.5c10-21.3,19.7-42.1,29.7-63.6c7.7,4.4,14.6,8.3,21.4,12.2c6.4,3.7,6.2,3.7,3.2,10.2
		c-7.5,16-15,32.1-22.3,48.3c-1.4,3.2-2.7,3.8-5.9,2.5C242.9,549.9,234.6,547,224.9,543.5z"/>
	<path class="st0" d="M1124,1173.1c-7-8.3-13.2-15.4-19-22.8c-0.6-0.8,0.1-3.7,1.1-4.7c11.9-12,24.1-23.8,36.1-35.7
		c2.2-2.2,4.2-4.6,6.6-7.3c7.4,6.2,14.6,12.2,21.7,18.4c0.8,0.7,1,3.3,0.3,4C1155.4,1141,1139.9,1156.9,1124,1173.1z"/>
	<path class="st0" d="M254.6,1019.7c-10-21.5-19.7-42.4-29.6-63.7c9.9-3.6,18.7-7,27.6-9.9c1-0.3,3.3,1,3.9,2.2
		c8.3,17.3,16.4,34.7,24.4,52.1c0.5,1.2,0.6,3.7-0.1,4.1C272.4,1009.6,263.9,1014.4,254.6,1019.7z"/>
	<path class="st0" d="M1232,1044c-13.6,19.4-26.9,38.3-40.5,57.7c-8-6.8-15.1-12.7-22-18.9c-0.9-0.8-1.1-3.7-0.3-4.8
		c10.8-15.7,21.9-31.3,32.9-47c1.3-1.9,2.3-3.1,4.7-1.6C1214.8,1034.2,1222.9,1038.8,1232,1044z"/>
	<path class="st0" d="M1028.9,1204.1c17.7-12.4,35.1-24.7,53.1-37.2c6.3,7.5,12.8,15.4,19.8,23.8c-8.5,6.4-16.3,12.6-24.6,18.4
		c-9.5,6.7-19.3,12.9-28.8,19.4c-3,2-4.7,1.7-6.6-1.7C1037.7,1219.1,1033.2,1211.6,1028.9,1204.1z"/>
	<path class="st0" d="M269.3,455.8c4.3-6.7,8-12.8,12.1-18.6c9.1-12.9,18.3-25.7,27.9-39.1c8,6.7,15.5,12.8,22.7,19.3
		c0.6,0.6-0.2,3.6-1.1,4.9c-10,14.3-20.1,28.5-30.1,42.8c-4.3,6.2-4.2,6.3-10.7,2.6C283.4,463.9,276.6,460,269.3,455.8z"/>
	<path class="st0" d="M215.3,929.5c-6.1-22.8-12.1-44.9-18.2-67.8c10.9-1.9,20.9-3.7,31.5-5.5c1.4,5.9,2.7,11.3,4.1,16.7
		c3.7,13.9,7.5,27.7,11.5,41.5c1,3.4,0.5,4.6-2.9,5.7C233,922.8,224.9,926,215.3,929.5z"/>
	<path class="st0" d="M376.7,326.4c7.1,8.4,13.4,15.7,19.4,23.2c0.5,0.6,0,2.9-0.8,3.6c-14.5,14.3-29.1,28.5-44.1,43.1
		c-6.8-5.7-14.2-11.8-21.4-18.1c-0.7-0.6-0.7-3.1,0-3.8C345.2,358.6,360.8,342.8,376.7,326.4z"/>
	<path class="st0" d="M228.6,643.3c-10.3-1.8-20.2-3.4-31.4-5.3c6-22.6,11.9-44.8,18.1-67.8c7.6,2.7,14.3,5,20.8,7.5
		c9.3,3.5,9,3.6,6.3,13.1c-4.4,15.9-8.4,31.9-12.6,47.9C229.5,640,229.2,641.2,228.6,643.3z"/>
	<path class="st0" d="M480.6,254.3c14.4-7,28.2-13.8,42.1-20.3c5.7-2.7,11.6-4.8,17.3-7.4c3-1.4,4.7-1.2,5.9,2.4
		c2.7,8.3,5.9,16.5,9.1,25.3c-7.2,3.1-14.4,5.9-21.3,9.2c-11.1,5.2-22.1,10.7-33,16.2c-3.1,1.6-4.8,1.4-6.6-2
		C490.1,270.1,485.6,262.8,480.6,254.3z"/>
	<path class="st0" d="M570.7,214.7c22.6-6,44.8-12,67.6-18.1c2,10.6,3.8,19.9,5.4,29.3c0.1,0.8-1.4,2.6-2.4,2.8
		c-19.7,5.1-39.5,10.1-59.8,15.2C578.1,235,574.6,225.4,570.7,214.7z"/>
	<path class="st0" d="M570.7,1284.9c3.9-10.8,7.4-20.2,10.8-29.6c20.8,5.6,41.2,11.1,62.4,16.7c-1.7,9.5-3.5,19.4-5.5,30.8
		C615.8,1296.9,593.6,1291,570.7,1284.9z"/>
	<path class="st0" d="M1308.4,833.9c-11.4-2-21.3-3.7-31.2-5.5c1-10,2-19.5,2.9-29c0.7-7.4,1.1-14.9,1.9-22.3c0.2-1.5,1.3-3.8,2.4-4
		c8.9-2,18-3.6,27-5.3c0.6-0.1,1.3,0.1,2.9,0.2C1312.3,789.9,1310.4,811.5,1308.4,833.9z"/>
	<path class="st0" d="M774.2,217.2c-1.9-9.9-3.8-19.8-5.9-30.4c22.4-0.2,43.8,2.7,65.8,5.3c-0.4,3.5-0.7,6.6-1.2,9.6
		c-1,6-2,12-3.1,18c-0.5,2.5-2,3.4-4.6,3.1C808.3,221,791.5,219.1,774.2,217.2z"/>
	<path class="st0" d="M1277.2,671.1c10-1.8,20-3.5,31.2-5.5c1.9,22.1,3.8,43.8,5.8,66.5c-11.4-2.2-21.7-4.3-31.5-6.2
		C1280.8,707.4,1279,689.6,1277.2,671.1z"/>
	<path class="st0" d="M192.5,665.9c10.3,1.8,19.4,3.3,28.4,5.1c1,0.2,2.6,2.1,2.5,3.1c-1.7,17-3.5,33.9-5.5,51.8
		c-9.5,1.9-19.7,4-31.4,6.3C188.5,709.7,190.5,687.9,192.5,665.9z"/>
	<path class="st0" d="M828.7,1276.8c1.7,9.4,3.5,18.6,5,27.8c0.1,0.9-1.3,2.9-2.1,3c-20.5,1.9-41,3.6-61.5,5.2
		c-0.3,0-0.6-0.2-1.5-0.7c0.9-5,1.9-10.1,2.9-15.2c0.4-2.1,1.1-4.2,1.4-6.3c1.5-9.4,1.4-9.1,10.9-9.8c12.9-1,25.7-2.5,38.6-3.7
		C824.3,1276.9,826.3,1276.9,828.7,1276.8z"/>
	<path class="st0" d="M726.5,1282.2c2,10.2,3.9,20.1,6.1,31.5c-22.3-2-43.7-3.9-66-5.9c0.9-6,1.7-11.1,2.5-16.2
		c0.6-3.6,1.2-7.2,1.8-10.8c0.4-2.4,0.9-4.4,4.3-4.1C692.2,1278.7,709.2,1280.4,726.5,1282.2z"/>
	<path class="st0" d="M671.9,222.7c-1.3-7.5-2.7-15.1-4-22.7c-0.3-1.5-1.1-3-0.8-4.3c0.3-1.4,1.6-3.5,2.6-3.6
		c19.8-1.9,39.6-3.5,59.5-5.2c0.8-0.1,1.6,0.1,3.1,0.2c-1.5,8-3.2,15.7-4.4,23.4c-0.8,5.2-2.5,7.6-8.5,7.9
		C703.9,219.3,688.4,221.1,671.9,222.7z"/>
	<path class="st0" d="M192.5,833.6c-2-22.4-3.9-43.8-5.9-66c11.4,2.3,21.7,4.3,31.8,6.3c1.2,13.4,2.4,26.4,3.6,39.5
		c0.4,4,1.2,7.9,1.4,11.8c0.1,1.1-0.8,3.2-1.5,3.4C212.4,830.3,203,831.8,192.5,833.6z"/>
	<path class="st0" d="M604.4,550.8c0.5-3.4,0.9-6.1,1.3-8.9c0.8,0.1,1.6,0.2,2.4,0.2c0,39.4,0,78.9,0,119.2
		c10.1-5.6,18.5-9.8,22.5-21c10.9-30.6,23.2-60.8,35.1-91c2.5-6.4,7.7-11.1,12.8-15.2c40-32.1,80.1-64,120.3-95.9
		c2.7-2.1,4.6-4.3,2.5-8.7c-6,4.8-11.9,9.4-17.8,14.1c-38.2,30.8-76.4,61.7-114.7,92.5c-2.2,1.8-4.8,4.2-7.3,1
		c-2.3-3-0.2-5.3,2.5-7.4c44.9-36.1,89.7-72.3,134.6-108.4c2.5-2,4-4.3,3.7-7.6c-0.2-1.8,0-3.7,0-5.5c0-9-0.3-9-9.6-9.7
		c-15.1-1.1-27,5.4-37.9,14.7c-2.3,2-4.8,3.8-6.7,6c-11.3,13.5-27,17-43.1,17.1c-24.1,0-48.2-1.2-72.3-2.7
		c-19.9-1.2-36,5.8-49.6,19.9c-10.3,10.7-17.7,23.2-23.9,36.6c-0.5,1.2-1.1,2.4-2.4,3.4c0.7-2.5,1.3-5.1,2.1-7.6
		c10.2-31.1,27.4-57.1,55.8-74.7c14.4-8.9,30.5-12.6,46.9-15.6c19.1-3.5,37.3-9.3,49.6-25.8c6.4-8.7,12.7-17.5,18.1-26.9
		c15.7-27.5,40.1-40.7,70.6-44.3c3.8-0.4,7.6-0.9,12.7-1.5c0-7.2,0-14.5,0-21.9c0.7,0,1.4,0.1,2.2,0.1c0,43.6,0,87.2,0,130.8
		c0.4,0.3,0.9,0.5,1.3,0.8c4.1-3.1,8.3-6.2,12.3-9.4c12.7-10.2,25.5-20.4,37.9-30.9c4.2-3.5,7.3-0.5,11.9,0.4
		c-7.3,5.9-13.9,11.4-20.6,16.8c-13.6,11-27.3,21.9-40.7,33c-1.8,1.5-2.5,4.4-3.7,6.6c0.5,0.4,1,0.8,1.5,1.2c1.4-0.9,3-1.7,4.3-2.8
		c20.5-16.4,41.1-32.8,61.6-49.3c3-2.4,5.6-3.3,9.4-1.6c5.1,2.4,10.5,4.2,15.8,6c2.8,1,3.2,2.2,2.6,5.1c-5.3,23.8-5.8,47.6,4.6,70.3
		c4.3,9.4,10.5,17.9,16.1,27.2c-10.8,6-22.3,12.4-33.9,18.8c-25.7,14.2-51.5,28.5-77.2,42.8c-1.6,0.9-2.8,2.6-4.3,3.9
		c0.4,0.5,0.8,1.1,1.2,1.6c1.6-0.7,3.1-1.4,4.6-2.1c50.2-26.2,100.4-52.5,150.6-78.7c2.7-1.4,6.5-5.2,8.8-0.2
		c2.1,4.5-2.9,5.2-5.5,6.6c-51.5,27-103,54-154.6,80.8c-3.7,1.9-5.3,4-5.1,8.3c0.4,9.3,0.1,18.6,0.1,28.1c1.3-0.1,2.2,0.1,2.9-0.2
		c9.7-4.8,19.4-9.5,28.9-14.6c1.1-0.6,1.9-3.3,1.6-4.8c-1.2-7.4-2.9-14.6-4.3-22c-0.3-1.7-0.3-3.5,0.5-5.4
		c4.8,8.9,4.6,19.2,7.9,29.2c2.2-1,4.3-1.8,6.3-2.8c41-20.5,81.9-40.9,122.9-61.4c0.4-0.2,0.9-0.5,1.3-0.7c2.5-1.1,5.5-3.4,7.5,0
		c2.2,3.8-1.4,5.1-4,6.4c-42.7,21.3-85.4,42.7-128.2,64c-3.8,1.9-5.9,3.7-2.5,8.3c34.2-16.4,68.6-32.9,104-50
		c-1.1,2.1-1.6,3.2-2.2,4.2c-16.9,26.9-28.7,55.8-33.3,87.3c-7,47.5,5.1,89.4,38.4,124.4c9.4,9.8,20.1,18.4,30.5,27.8
		c-6.9,1.6-14.2,3.4-21.5,5c-23.1,5.3-46.2,10.6-69.3,15.8c-2.5,0.6-5.3,0.6-4.4,4.4c0.9,3.6,3.8,2.1,5.8,1.7
		c30.3-6.4,60.6-12.9,90.9-19.3c7.6-1.6,15.3-3,22.9-4.8c2.7-0.6,5.2-1.2,6.1,2.1c1.1,3.7-1.9,4.5-4.6,5.1
		c-12.8,2.7-25.6,5.4-38.5,8.1c-25.5,5.4-50.9,10.8-76.4,16.1c-2.7,0.6-4.2,1.4-3.5,4.6c1.5,7,2.6,14,4.3,20.9
		c0.2,1,2.7,2.4,3.9,2.2c23.4-3.7,46.8-7.6,70.3-11.3c21.8-3.5,43.6-6.9,65.4-10.4c7.5-1.2,15.1-2.4,22.6-3.6c0.5-0.1,1-0.3,1.5-0.3
		c2.9,0.1,7.1-1.8,7.6,3c0.5,4.2-3.5,4.3-6.3,4.7c-40.6,6.5-81.3,12.8-122,19.2c-40.5,6.5-80.9,13.1-121.4,19.6
		c-27.7,4.5-55.4,8.8-83.1,13.2c-0.6,0.1-1.3,0-2.1,0c3.9-9.6,12.7-9.6,20.7-10.9c13.4-2.1,26.8-4.2,40.5-6.4c0-7.6,0-15,0-22.9
		c-13.6,2.8-26.8,5.6-40.4,8.5c3.6-7.5,9.8-10,17-11.1c6.9-1.1,13.7-2.6,20.4-4.2c1.5-0.4,2.5-2.2,3.8-3.3c-0.4-0.6-0.7-1.2-1.1-1.8
		c-9.3,2-18.6,4.1-28.3,6.2c2.5-4.9,6.5-6.8,11.2-7.7c3.7-0.8,7.5-1.4,11.2-2.2c7.1-1.4,7.7-2.5,5.6-10c-20,4.7-40,9.4-60,14.1
		c-34.8,8.3-69.7,16.6-104.5,24.9c-3.4,0.8-7.2,1.4-5.3,7.2c44.7-10,89.3-20.1,134-30.1c-30.7,25.8-52.2,57.2-60.2,96.8
		c-7.8,38.9-2.7,76.7,11.9,114.7c-4.6-1.4-8.4-2.1-12-3.6c-16.6-6.6-30.6-17.4-44.2-28.7c-18.8-15.5-36.7-31.9-56-46.7
		c-21.8-16.7-45.6-30.4-71.4-40.4c-17.6-6.8-33-17.6-49.3-29c11.6-2.6,22.1-5,32.7-7.4c25.1-5.7,50.1-11.3,75.2-16.9
		c3.4-0.7,5.9-1.7,3.6-6.2c-12.1,2.9-24.2,5.7-36.2,8.6c-25.6,6.1-51.3,12.2-76.9,18.3c-1.7,0.4-3.7,0.4-5.3,0
		c-0.8-0.2-1.8-2.5-1.4-3.1c0.8-1.4,2.3-2.9,3.8-3.3c8.7-2.3,17.4-4.2,26.1-6.3c11.3-2.7,22.6-5.3,33.8-8.1c1.7-0.4,3.8-1.8,4.4-3.3
		c3.7-8.8,7.1-17.9,11-27.8c-2.3,0.4-3.8,0.6-5.3,1c-30.6,8.7-61.2,17.5-91.8,26.3c-0.6,0.2-1.3,0.8-1.8,0.6
		c-1.6-0.5-3.1-1.2-4.7-1.8c0.9-1.3,1.5-3.3,2.7-3.8c4.3-1.7,8.8-3,13.3-4.3c28.9-8.3,57.8-16.5,86.7-24.9c1.7-0.5,3.2-1.5,4.8-2.3
		c-0.2-0.5-0.4-1-0.6-1.6c-2,0.5-3.9,0.8-5.9,1.4c-28.3,8.4-56.7,16.6-85,25.3c-5.4,1.6-9.1,0.6-13.1-2.8
		c-14.6-12.6-18.8-28.9-16.9-47.2c0.7-6.5,2.8-12.9,4.1-19.4c0.8-3.9,3.1-6.3,6.5-8.3C496.1,743,544.2,714,592.4,685
		c2.3-1.4,5.4-2.3,3.8-6.8c-2.2,1.2-4.2,2.2-6.1,3.4C540,712.2,490,742.8,439.9,773.4c-1.3,0.8-2.5,2-3.8,2.2
		c-1.8,0.3-3.8-0.3-5.7-0.5c0.7-1.9,0.9-4.4,2.3-5.7c2.3-2.1,5.3-3.4,8-5.1c50.5-30.9,100.9-61.8,151.5-92.6c3.3-2,5-4.2,4.9-8.2
		c-0.2-9.7-0.1-19.3,0.1-29c0.1-3.7-1.3-4.9-4.9-5c-11.8-0.2-20.5,6-28.6,13.4c-3.4,3.1-6.6,6.7-8.9,10.7
		c-9.1,16.1-23.6,24.7-40.7,28.8c-15.3,3.6-30.9,6.5-46.5,8c-20.1,2-39.5,4.7-56.2,17.5c-16.1,12.4-28.6,27.8-39,45
		c-0.8,1.4-1.7,2.7-2.9,3.9c2-14.4,7.1-27.5,16.1-39c12.4-15.7,29.4-25.2,46.7-34.2c15.4-7.9,30.8-15.7,44.3-26.8
		c18.8-15.4,33.1-34.5,46.8-54.2c6.2-9,12.3-18.3,19.7-26.3c15.7-17.1,35.5-25.8,59-25.4C602.7,551.1,603.5,550.9,604.4,550.8z
		 M721.4,774.2c-2.1,0.7-3.5,1.2-4.9,1.6c-24.5,7.3-49.1,14.5-73.6,21.9c-1.6,0.5-3,1.7-4.5,2.6c0.3,0.6,0.5,1.2,0.8,1.7
		c1.5-0.3,3.1-0.5,4.6-0.9c34.3-9.8,68.6-19.6,102.9-29.4c1.3-0.4,2.6-0.9,3.8-0.7c1.1,0.2,2.7,1,3,1.9c0.2,0.8-0.8,2.3-1.7,3.1
		c-0.8,0.7-2.1,0.8-3.2,1.1c-35.5,10.3-71.1,20.6-106.6,30.9c-5.6,1.6-6.6,3.5-4.6,8.8c0.4,0,0.9,0,1.4-0.1
		c26-7.4,52.1-14.8,78.1-22.2c11.9-3.4,23.9-6.6,35.7-10.2c5-1.5,7-5.2,6.3-10.4s-4.6-6-8.7-6.2c-2-0.1-4.1,0.1-5.9,0.8
		c-3.1,1.2-5.3,0.4-7.5-1.8c-28.4-28.6-37.9-63.3-33.7-102.5c0.4-3.9,2.5-5.9,5.9-7.5c29.7-14.2,59.4-28.5,89.1-42.7
		c3.5-1.7,5.4-3.6,3.2-8c-32.1,16-64,31.9-96.2,48c0.9-7,4.5-10.2,9.9-12.8c27.6-13.4,55-27.2,82.4-41c1.8-0.9,4.4-2.5,4.5-3.9
		c0.4-10.9,0.2-21.8,0.2-33.7c-22.9,11.9-44.7,23.3-67,35c-0.3-5.7,0.8-9.5,6-11.4c3.6-1.3,6.9-3.3,10.3-5c16-8.3,32.1-16.5,48-25
		c1.3-0.7,1.9-2.7,2.8-4.1c-0.4-0.3-0.9-0.7-1.3-1c-2.5,1.3-5,2.5-7.4,3.9c-18.1,10.2-36.1,20.4-54.2,30.5c-1.5,0.9-4.5,1.7-5.2,1
		c-4.9-5.2-9.7-2.9-14.4-0.1c-7.7,4.6-15.2,9.5-22.8,14.3s-15.3,9.7-23.1,14.7c-2.2-3.7-4-7-5.9-10.2c-0.3,0.1-0.7,0.3-1,0.4
		c-1,7.1-2.1,14.3-3.3,22.4c2.5-1.3,4.1-1.9,5.6-2.8c17.1-10.5,34.2-21,51.4-31.4c2.5-1.5,5.6-4.8,8.1-0.9c2.6,4.1-2,5.1-4.4,6.6
		c-19.5,12-39,24-58.5,36c-2.7,1.6-5.1,3.3-3.2,8c16.9-10.1,33.7-20.1,49.8-29.7c-6.1,13.1-13.1,26.2-18.2,39.9
		c-9.6,25.8-12.1,52.2-2.4,78.8C697.9,748.2,707.9,761.9,721.4,774.2z M901.6,842.7c-1.9-8.7-3.6-16.8-5.6-24.7
		c-0.2-0.9-2.7-1.9-4-1.7c-4.2,0.6-8.4,1.7-12.6,2.5c-20.7,4.3-41.3,8.7-62,13.1c-1.3,0.3-3.3,1.7-3.4,2.7c-0.3,7.1-0.2,14.1-0.2,22
		C843.4,851.9,871.9,847.4,901.6,842.7z M547.5,863.3c16.3-4,31.3-7.6,46.3-11.4c1.2-0.3,2.9-1.7,2.9-2.6c0.2-9.1,0.1-18.2,0.1-27.8
		c-2.4,0.5-4,0.6-5.5,1.1c-8.4,2.4-16.8,5.1-25.3,7c-5.1,1.2-8,3.4-9.5,8.5c-2,6.6-5,12.9-7.5,19.4
		C548.4,859,548.2,860.6,547.5,863.3z M631.3,646.1c0.5,0.3,0.9,0.6,1.4,1c8.6-5.3,17.3-10.4,25.8-15.8c1.1-0.7,2-2.2,2.3-3.6
		c5.3-20.8,3.1-42.1,3.9-63.2c0-0.1-0.4-0.3-1.3-0.8C652.7,591.2,642,618.6,631.3,646.1z M801.5,794.8c-1.3,0.2-2.3,0.3-3.2,0.5
		c-38.6,10.3-77.1,20.6-115.7,31c-15.5,4.1-30.9,8.2-46.4,12.4c-1.3,0.4-2.4,1.6-3.5,2.4c0.3,0.4,0.6,0.9,1,1.3
		c1.8-0.3,3.5-0.5,5.3-0.9c52.7-12.5,105.3-25.1,157.9-37.6C802.7,802.5,803.4,801.2,801.5,794.8z M633.5,810.3
		c-8.3,2.4-16,4.6-23.6,7.1c-1,0.3-1.9,2.6-1.9,4c-0.2,7.6,0,15.3-0.1,22.9c-0.1,3.4,1.6,4.1,4.3,3.5c4.5-1,9-2.1,13.5-3.1
		c3.8-0.9,4.4-2.9,2.3-6.1c-1.8-2.8-3.7-5.5-5.2-8.4c-3.6-7.4-3.2-8.4,4.6-10.4C632,818.6,634.2,816.2,633.5,810.3z M814.5,825.5
		c26.6-5.6,53-11.2,79.3-16.7c0.5-3.8,0.5-6.8-4.3-5.7c-24.1,5.5-48.1,11.2-72.2,16.6C814.1,820.4,813.5,821.7,814.5,825.5z
		 M849,581.9c-1.3,0.6-2.6,1.2-3.9,1.8c-9.7,4.8-19.5,9.5-29.1,14.7c-1.5,0.8-1.9,3.7-2.7,5.7c0.5,0.3,0.9,0.7,1.4,1
		c1.5-0.6,3-1.1,4.4-1.8c9.1-4.4,18.1-9,27.3-13C850.9,588.3,852.1,586.1,849,581.9z M659.2,641.4c-0.6-0.5-1.1-1-1.7-1.4
		c-10.2,6.4-20.4,12.6-30.4,19.2c-1.4,0.9-1.9,3.3-2.8,5.1c0.4,0.3,0.8,0.6,1.1,0.9c1.7-0.9,3.4-1.8,5.1-2.8
		c8.7-5.2,17.4-10.3,25.9-15.7C657.9,645.6,658.3,643.1,659.2,641.4z M596.9,814.7c-3.9-3.7-31.9,4.6-34.4,9.9
		C574.6,821.1,585.7,817.9,596.9,814.7z M627.7,851.1c-6.2,1.4-11.8,2.6-17.3,4.1c-1.1,0.3-1.6,2.4-2.4,3.7c1.3,0.6,2.7,1.9,3.9,1.7
		c3.7-0.6,7.3-2.1,11.1-2.5C627.1,857.7,627.8,855.5,627.7,851.1z M635.2,801.6c-0.4-0.4-0.7-0.9-1.1-1.3
		c-8.8,2.5-17.8,4.3-26.2,8.2c0.3,0.9,0.6,1.8,0.8,2.8c8.1-2.4,16.3-4.7,24.4-7.2C634,803.8,634.5,802.4,635.2,801.6z M609.1,674.5
		c8.5-3.1,11-5.4,11.2-10.6C611.8,666.1,607.4,670.3,609.1,674.5z M814.2,811.6c5.2-4,5.1-9.4,0-12.8
		C814.2,803,814.2,807.2,814.2,811.6z"/>
	<path class="st0" d="M445,1085.4c4.3-9.6,8.4-19.1,12.7-28.4c5.5-11.9,12.9-22.6,22.9-31.1c13.3-11.4,29.3-14.5,46.2-13.6
		c7.6,0.4,15.3,1.4,22.5,3.6c14.1,4.3,22.4,16.1,22.5,30.7c0,6.2-1,12.5-1.9,18.7c-0.2,1.2-1.9,2.2-2.8,3.4
		c-0.8-1.1-1.9-2.1-2.3-3.4c-3.7-11.2-17.9-21.2-29.7-20.4c-7.9,0.5-13.2,5.3-16.5,12.1c-3.9,7.8-3.9,15.7,1.1,23.2
		c7.3,11.1,22.5,17.6,36.4,14.1c11-2.8,21.9-6.7,32.2-11.5c19.7-9.3,38.7-19.9,58.3-29.3c12.5-6,25.8-8.9,39.7-5.8
		c17.1,3.7,28.8,14.5,37.3,29.2c0.7,1.2,0.5,3,0.6,4.5c-1.6-0.3-3.4-0.2-4.8-1c-5.8-3-11.2-7.6-17.4-9.2c-12.3-3.3-21.5,3.3-29,12.3
		c-3.2,3.8-5.7,8.2-8,12.6c-3.5,6.6-2.1,12.1,4.9,14.6c7.4,2.6,15.3,4.5,23.1,5c23.5,1.3,45.7-3.9,67.4-13.1
		c10.5-4.4,21.5-7.9,32.5-10.5c13.6-3.2,27.2-0.1,40.3,3.5c18.4,5.1,36.3,11.7,54.7,16.5c38.3,10,74.2,4.4,107-18.3
		c1.2-0.9,3.2-0.7,4.8-1.1c-0.3,1.6,0,3.6-0.9,4.8c-27.7,38.5-63.7,64.5-111,73.5c-31.3,5.9-61.9,2.7-92-6.6
		c-15.6-4.8-31.4-7.6-47.7-3.4c-8.2,2.1-15.7,5.8-21.2,12.5c-2.7,3.3-4.9,7.6-6,11.8c-1.8,6.8,0.3,11.3,7,13.2
		c7.3,2,15,2.3,22.5,3.5c1.8,0.3,3.5,1.1,5.2,1.7c-1.3,1.4-2.4,3.5-4,4.2c-20.7,8.7-42.3,13.5-64.6,15.3
		c-40.7,3.3-80.7-0.2-119.6-13.1c-16.3-5.4-31.5-13-45.8-22.7c-22.3-15.2-45.5-28.8-71.8-35.8c-10.2-2.7-20.6-4.3-31-1.4
		c-14.1,4-19,13.2-14.2,27.2c2.1,6.2,5.7,11.9,8.5,17.9c0.5,1.1,1.3,3,0.9,3.5c-0.8,0.9-2.6,1.6-3.8,1.4
		c-25.3-3.9-48.9-11.5-64.2-33.8c-13.5-19.6-14.6-41.2-6.9-63.4c0.9-2.6,2.8-4.9,4.3-7.3c5.4-8.6,9.8-17.5,8.5-28
		c-0.7-5.8-5.2-10.1-10.7-9.5c-2.5,0.3-6.3,2.1-7,4.1c-2.1,6.4-2.9,13.1-4.4,19.7c-0.4,1.7-1.3,3.3-2,4.9c-1.2-1.4-3.2-2.6-3.5-4.1
		c-1.7-9.1-4-18.2-4.2-27.4c-0.3-14.4,7.1-24.5,20.6-30c22.3-9.1,46.8-2.6,60.8,16.1c1.2,1.6,2.2,3.3,3.1,5.1
		C413.7,1063.7,430.3,1079.9,445,1085.4z"/>
	<path class="st0" d="M1028.5,839c-12.4,11.9-24.8,23.1-36.3,35.1c-26,26.9-47.8,56.8-59.8,92.7c-16,47.9-9.8,92.7,20.1,133.7
		c0.9,1.2,1.9,2.3,2.8,3.5c0.8,1,1.7,2,3.4,4c-4.5,1.1-8.2,2.1-11.9,2.8c-26.8,5.4-52.6,0.3-77.8-8.5c-10.5-3.7-20.5-8.6-31-12.3
		c-11.4-4-23-7.5-34.6-10.5c-14.6-3.9-27.6-11.2-40.7-18.3c-9.5-5.1-18.9-10.6-28.1-16.1c-1.9-1.2-3.9-3.4-4.5-5.5
		c-8.8-27.7-14-56.1-13-85.3c0.9-23.6,5.1-46.5,15.8-67.9c1.5-2.9,3.2-4.5,6.7-4.9c21.7-3,43.3-6.4,65-9.6
		c24-3.6,47.9-7.2,71.9-10.7c25.9-3.8,51.9-7.5,77.9-11.3c23.8-3.5,47.6-7.2,71.4-10.8C1026.5,838.9,1027.4,839,1028.5,839z"/>
	<path class="st0" d="M1147.7,853.6c-0.2,5.6-2.5,8.6-6.9,11.1c-80.6,45.9-131.8,114-153.8,204c-2.1,8.5-3.4,17.2-5,25.9
		c-0.6,3.4-9.2,9.7-12.4,8.7c-1-0.3-2-1.7-2.5-2.8c-8.4-17.5-14.3-35.7-17.1-54.9c-9.2-63.7,11.1-118.3,51.3-167
		c7-8.5,14.8-10.9,24.7-11.8c20.2-1.9,40.3-4.4,60.4-6.6c16.5-1.8,33-3.5,49.5-5.3C1139.8,854.4,1143.7,854,1147.7,853.6z"/>
	<path class="st0" d="M783.7,1079.5c-13.7-5.4-27.5-10.3-41-16.3c-57.1-25.4-109.8-58.3-159.8-95.3c-19.3-14.3-39.8-24.9-63.3-30.1
		c-20.1-4.4-36.5-16-51.3-29.5c-29-26.5-57.5-53.6-85.9-80.8c-34.1-32.5-68-65.4-102-98c-1.3-1.2-2.9-2-4.4-3
		c0.4-0.4,0.8-0.9,1.2-1.3c8.9,7.4,17.8,14.8,26.6,22.3c39.4,33.1,78.8,66.2,118.1,99.3c19,16,37.9,32,56.6,48.3
		c16.9,14.7,36.6,24.6,56.8,33.7c11.9,5.4,24.5,9.7,35.9,16.1c12.5,7,24.4,15.4,35.9,24.1c22.5,16.9,43.8,35.4,66.9,51.3
		c17.7,12.1,37.4,21.4,56.5,31.4c16.2,8.5,32.8,16.1,49.2,24.1c1.5,0.7,2.9,1.5,4.4,2.3C784,1078.5,783.8,1079,783.7,1079.5z"/>
	<path class="st0" d="M785.5,1085.9c-6.5,4.3-12.9,5.7-20.7,1.9c-11.8-5.8-24.1-10.2-36.1-15.7c-3.2-1.4-6.1-4.1-8.3-6.8
		c-12-14.6-27-22.7-46.2-22.6c-3.1,0-6.6-1-9.3-2.7c-26-16.7-51.8-33.9-77.8-50.5c-29.4-18.7-59.8-35.4-93.9-44
		c-11.4-2.9-23.2-4-34.8-5.7c-2.6-0.4-4.2-0.7-4.4-4c-0.6-12.2-1.6-24.4-2.3-34.7c10.4,8.3,22.3,18.2,34.6,27.5
		c13,9.9,27,17.9,42.8,22.8c33.4,10.4,62.7,28.5,90.5,49.6c10.2,7.7,20.5,15.5,31.5,22c10.4,6.1,21.7,10.7,32.7,15.7
		C717.6,1054.6,751.5,1070.2,785.5,1085.9z"/>
	<path class="st0" d="M660.6,1044.3c-5.4,1.9-10.1,3.8-14.9,5.1c-1.6,0.4-4-0.3-5.5-1.2c-20.3-12.3-40.8-24.3-60.7-37.2
		c-22-14.3-45.2-25.9-70.7-32.2c-3.1-0.8-4.2-2.5-4.8-5.4c-0.9-5-2.3-9.9-3.4-14.6c11.1,1.2,52.9,18.2,82.2,36.1
		C608.8,1010.8,634.3,1027.5,660.6,1044.3z"/>
	<path class="st0" d="M278.9,734.7c8.8,8.2,17.9,16.3,26.5,24.8c36.1,35.5,72.3,70.9,108.1,106.7c17.4,17.4,25.1,39.5,28.5,63.4
		c3.5,25.2-1.5,49.5-7.4,73.8c-4.8,20-6.7,40.4-0.7,60.6c1.4,4.7,3.5,9.1,5.8,14.7c-6.7-7.3-9.8-15.1-11.7-23.5
		c-4.1-18-2-35.6,2.3-53.3c5.3-22.1,8.1-44.5,6.5-67.2c-1.3-18.4-6.1-35.7-19.1-49.7c-33-35.7-66.1-71.3-99.2-106.9
		c-12.6-13.5-25.3-26.9-38-40.4c-0.7-0.8-1.4-1.6-2.1-2.4C278.6,735,278.7,734.8,278.9,734.7z"/>
	<path class="st0" d="M635.5,1053.9c-5,2.5-9.5,5-14.1,7c-1,0.4-2.8-0.3-3.9-1.1c-16.2-11.5-33.2-22.3-48.4-35.1
		c-9-7.6-18-12.9-29.3-15.5c-13.8-3.2-27.4-7.3-40.8-10.9c1.1-3,2.4-7.2,4.3-11.2c0.5-1.1,3.2-1.9,4.5-1.6
		c22.1,5.6,42.4,15.1,61.6,27.2c21.1,13.2,42.3,26.2,63.5,39.3C633.6,1052.4,634.2,1053,635.5,1053.9z"/>
	<path class="st0" d="M585.2,1080.4c-15.6,7.1-30,13.9-46.4,9.3c-12-3.3-19.5-13-18.8-23.7c0.2-2.6,1-5.2,2.1-7.6
		c3.7-7.7,7.2-9,15-5.6c5.3,2.4,10.5,4.8,15.7,7.4c4.1,2.1,8.6,3.5,9.6,9.2c0.2,1.3,3.3,3.4,4.5,3
		C574.9,1070,578.5,1077,585.2,1080.4z"/>
	<path class="st0" d="M973.7,411.2c1.6,2.3,3.6,4.5,4.8,7c46.5,102.1,92.9,204.1,139.4,306.2c12.5,27.5,25.1,54.9,37.5,82.5
		c1.2,2.6,1.5,5.6,2.2,8.4c-0.5,0.2-1.1,0.4-1.6,0.6c-61.2-134.6-122.4-269.1-183.7-403.7C972.7,411.9,973.2,411.6,973.7,411.2z"/>
	<path class="st0" d="M342.4,451c4.1-4.8,8.3-9.8,11.9-14c1.7,1.9,3,4.7,5.1,5.5c9.2,3.5,18.6,6.5,28.3,9.8
		c-3.9-16.8-14.4-25.7-26.9-22.6c4.7-5.5,9-10.6,13.1-15.5c0.7,1.7,0.9,4.1,1.9,4.5c9.4,3.8,19,7.2,28.5,10.8
		c0.3-0.4,0.6-0.8,0.9-1.2c-1.6-3.1-3.2-6.3-4.9-9.3c-2.4-4.5-4.9-9-7.4-13.4c-1.7-2.9-3.4-6-7.9-4.2c2-2.4,3.9-4.8,5.5-6.7
		c3,6.1,5.9,12.2,9.1,18.2c5.8,10.8,11.7,21.5,18.4,33.6c-12.4-4.3-23.4-8.1-35.9-12.5c6,12,11.2,22.6,17,34.3
		c-10.7-3.6-20.1-6.8-29.5-9.9c-6.6-2.2-13.2-4.4-19.8-6.4C347.4,451.2,345,451.3,342.4,451z"/>
	<path class="st0" d="M1015.9,863c6-8,12.9-11.2,21.8-12.2c33.5-3.7,66.9-8,100.3-12.1c4.6-0.6,9.1-1.2,13.7-1.9
		c0,8.6-0.6,9.6-8.1,10.6c-20.3,2.6-40.5,4.9-60.8,7.4c-20.1,2.5-40.2,5.1-60.3,7.6C1020.6,862.8,1018.6,862.8,1015.9,863z"/>
	<path class="st0" d="M936.8,325.7c7,15.8,14.1,31.6,21.1,47.4c-0.4,0.3-0.7,0.6-1.1,0.9c-1.4-1.6-3.2-3-4.1-4.9
		c-6.1-12.9-11.9-26-17.8-38.9c-0.8-1.8-1.7-3.5-2.9-6c-6.8,5.4-13.3,10.6-19.7,15.7c-2,1.6-3.9,3.1-5.8,4.7c-6,5-6,5-13.9,1.3
		c10.6-8.6,21-17,31.4-25.5c9.8-7.9,19.7-15.8,29.5-23.8c0.3-0.2,0.5-0.5,0.7-0.7c2.1-1.5,4.3-3.1,6.5-0.5c2.3,2.6,0.5,4.6-1.6,6.3
		c-5.8,4.8-11.4,9.7-17.5,14.1c-3.3,2.4-3.1,4.2-1.3,7.3c11.4,18.9,22.7,37.9,34,56.8c0.7,1.3,1.5,2.5,2.2,3.8
		c-0.4,0.3-0.7,0.6-1.1,0.9c-1.8-2-4-3.8-5.4-6c-10.2-16.7-20.3-33.6-30.4-50.3c-0.7-1.1-1.5-2.1-2.2-3.1
		C937.4,325.4,937.1,325.6,936.8,325.7z"/>
	<path class="st0" d="M444,1073.1c-2.2-10.4-4.5-19.7-6.1-29c-3.6-21.6,1.3-42.7,5.2-63.7c3.7-19.7,5.5-39.5,1.8-59.4
		c-0.1-0.3,0.1-0.6,0.4-1.9c3.5,13.8,4.7,26.9,3.9,40.3c-1.1,17.9-2,35.8-2.3,53.8c-0.2,12.2,2.5,24.1,6.7,35.6
		c0.9,2.5,1,4.2-0.7,6.8C449.9,1060.5,447.6,1066,444,1073.1z"/>
	<path class="st0" d="M1106,447.8c5.1-9.3,5.2-11-0.2-16.7c-4.6,4.1-9.5,8.1-13.8,12.6c-1,1-0.6,4.6,0.5,6
		c5.9,8.1,13.4,12.3,23.9,8.6c-3.9,2.6-7.9,5.3-12.3,8.3c-8.7-9.9-17.5-19.9-25.7-29.2c3.7-2.6,7.3-4.6,10.4-7.3
		c8.1-6.9,16.1-13.9,23.8-21.2c1.8-1.7,2.5-4.5,3.7-7c8,9.1,16.8,19.1,25.7,29.3c-3.7,3.2-7.1,6.3-10.6,9.3c7.3-11.1,0-18.1-7-25.6
		c-5.4,4.7-10.8,9.3-16.1,13.9c4.3,6.1,5.8,6.2,17.3,1.6C1118.5,436.8,1112.2,442.3,1106,447.8z"/>
	<path class="st0" d="M1089.3,1072.6c-3.2-3.6-6.3-7.2-9.9-11.3c8.6-9.9,17.1-19.7,25.7-29.8c4.2,8.4,11.9,12.9,18.6,18.4
		c6.5,5.3,11.5,13.1,21,15.2c-8.1,9.3-16.5,19.1-25.2,29c-3.8-3.3-7.2-6.3-11.3-10c12.4,4.3,14.8,2.9,25-9.8
		c-5.3-4.6-10.6-9.2-15.9-13.7c-5.6,4.4-5,8.2-0.1,16.5c-6-5.2-12-10.4-18.1-15.6c5.8,1.7,11.3,3.4,15.8-3c-4.7-4.1-9.4-8-14-12
		c-2.3-1.9-4.1-1.2-6.1,0.7C1087.5,1054.4,1083.8,1062.4,1089.3,1072.6z"/>
	<path class="st0" d="M1157,691.4c-51.2-85.6-102.3-171.3-153.5-256.9c0.5-0.3,0.9-0.7,1.4-1c2,2.3,4.3,4.4,5.8,7
		c28,46.7,55.9,93.4,83.8,140.2c20,33.5,40,66.9,59.9,100.5c1.8,3,2.7,6.4,4,9.7C1157.9,691,1157.5,691.2,1157,691.4z"/>
	<path class="st0" d="M1045.5,406.6c-3.8-3.4-7.5-6.9-11.3-10.3c4.3,1.7,7.5,0.3,10.3-2.8c6.9-7.7,13.8-15.2,20.6-23
		c4.6-5.2,4.6-5.7,3.1-13.3c4.3,3.9,8.4,7,11.7,10.8c1.2,1.4,0.7,4.4,0.5,6.6c-0.6,11.2-1.3,22.4-1.1,33.9
		c6.3-8,16.5-12.9,18.2-24.8c2.7,2.4,5.5,4.8,8.2,7.2c-5.1-1.6-7.9,1.3-10.8,4.5c-9.3,10.4-18.6,20.8-29.1,30.9
		c0.9-18.2,1.9-36.3,2.9-55.4c-1.4,1.1-2.3,1.6-3,2.3c-6.3,6.9-12.6,13.7-18.7,20.7C1041.9,399.9,1042,400.2,1045.5,406.6z"/>
	<path class="st0" d="M442,418.4c-1.9,1.7-4.5,4.1-6.3,5.7c-1.5-3.5-2.4-7.4-4.7-10.2c-6.5-8.2-13.7-15.9-20.5-23.7
		c-3.2-3.7-5-4.1-12.1-2.3c4.5-3.9,8.1-7.7,12.3-10.4c1.8-1.2,5.1-0.8,7.5-0.3c10.1,1.7,20.2,3.7,30.3,5.6c1,0.2,2,0,4.5,0
		c-6.6-7.2-12.3-13.7-18.5-19.7c-1.2-1.2-4.1-0.6-6.7-0.9c3.2-2.7,6.2-5.4,10.3-9c-2.3,5.3-1,8.5,2,11.7c8.9,9.8,17.6,20,26.3,30
		c0.6,0.7,1,1.5,1.9,2.9c-18.5-3.1-36.4-6.1-54.3-9.2c-0.3,0.3-0.5,0.7-0.8,1c3,3.6,5.9,7.2,8.9,10.7c3.6,4.1,7.1,8.4,11,12.2
		C435.6,414.8,438.7,416.3,442,418.4z"/>
	<path class="st0" d="M1044.2,817.6c-3.2-2.8-75-289.1-72.2-292.7c24.5,97.5,49.1,194.9,73.6,292.4
		C1045.1,817.4,1044.7,817.5,1044.2,817.6z"/>
	<path class="st0" d="M745.6,1104c-10.4,4.1-19.5,6.4-29.7,2c-12.5-5.3-25.4-9.6-38.1-14.4c-1.4-0.5-2.6-1.3-4.4-2.3
		c1.2-1.7,2.2-3.3,3.3-4.6c5.9-7.1,6.9-7.1,15.4-3.5c16.1,6.9,32.4,13.7,48.6,20.6C742,1102.4,743.3,1103,745.6,1104z"/>
	<path class="st0" d="M1072.8,1067.8c3.9,4.1,7.8,8.2,11.2,11.8c-4.7-0.9-9.7-2.4-14.9-2.6c-6.3-0.3-11.9,4.9-12.3,10.1
		c-0.4,5.3,2.6,9,7.8,8.6c4.9-0.4,9.7-1.8,14.5-3.1c5.4-1.4,10.7-2.5,15.9,0.1c5.5,2.8,8.1,7.5,7.7,13.4
		c-0.4,7.4-5.2,11.9-11.7,14.8c-2.7,1.2-7.1,0.5-6.4,5.4c-3.4-3.1-6.5-6-8.4-7.7c4,0.1,9.2,1.1,14,0.1c2.8-0.5,5.9-3.6,7.5-6.3
		c2.9-4.8-0.2-9.8-5.7-9.5c-4.9,0.3-9.7,1.9-14.5,2.7c-3.9,0.7-7.9,1.9-11.7,1.6c-14-1.3-16.2-16-10.2-24.3c2.1-3,5.4-5.4,8.7-7.2
		C1070.4,1072.4,1070.6,1072.7,1072.8,1067.8z"/>
	<path class="st0" d="M1237.1,825.6c-6.7-11.3-13.1-22.1-19.6-32.9c0.2-0.4,0.5-0.7,0.7-1.1c1.2,0.8,2.8,1.3,3.5,2.3
		c6.8,11.2,13.4,22.4,20,33.8c1.9,3.3,0.2,7.5-3.3,7.9c-20.3,2.6-40.6,4.9-60.9,7.3c-0.4,0.1-0.9-0.2-1.4-0.3
		c1.2-8.9,1.2-8.8,9.9-9.8c16.2-1.9,32.3-4,48.4-6.1C1235.2,826.6,1235.8,826.2,1237.1,825.6z"/>
	<path class="st0" d="M613.2,1065.6c-6.8,3.6-13.2,7.2-19.7,10.4c-1,0.5-2.8,0-3.9-0.6c-3.8-2.4-7.3-5.2-11.1-7.5
		c-3.1-1.9-3.9-4.1-3.7-7.7c0.4-7.1,0.1-14.2,0.1-21.8C587.8,1047.4,600.3,1056.3,613.2,1065.6z"/>
	<path class="st0" d="M402.6,1033.5c-4-3.1-8.1-6.3-12.3-9.4c-2.6-1.9-3.4-6.1-1.5-8.7c5.8-7.4,21.8-12.4,30.5-9.5
		c2.5,0.8,4,1.9,3.4,4.9c-0.9,5.1-1.4,10.2-2,14.2C414.2,1028.1,408.3,1030.8,402.6,1033.5z"/>
	<path class="st0" d="M453.5,973.7c0-8.4,0-16.4,0-25.5c11.7,2,22.3,3.8,32.1,5.5c-2.8,6.3-5.2,12.1-7.9,17.7
		c-0.5,1.1-2.4,2.1-3.7,2.1C467.2,973.8,460.4,973.7,453.5,973.7z"/>
	<path class="st0" d="M510.2,1009c-2.3,0.6-4.6,1.2-7,1.7c-10.6,2.4-19.8,7.4-27.6,14.9c-3.3,3.2-12.1,4.4-15.8,2.1
		c-0.9-0.6-1.5-2.2-1.7-3.4c-0.8-3.5-1.3-7.1-2-11.3C473.6,1005.6,491.7,1005.5,510.2,1009z"/>
	<path class="st0" d="M452.4,979.9c7.4,0,13.6-0.1,19.7,0c2.9,0,4.7,0.8,5.2,4.5c0.7,5,2.5,9.9,3.9,15.2c-8.2,1.7-16.9,3.6-26.4,5.6
		C454,997.5,453.3,989.5,452.4,979.9z"/>
	<path class="st0" d="M432.1,937.8c-7.3,1.7-12.8,3-18,4.3c2.1-11.9,4.2-24.1,6.3-36.4c0.3-0.2,0.7-0.3,1-0.5
		C425,916,428.5,926.9,432.1,937.8z"/>
	<path class="st0" d="M404.9,1039.1c1.8-1.1,3.4-2.5,5.2-2.9c9.7-2.6,10.8-2.4,11.8,7.2c0.9,8,2.3,15.9,3.5,24.3
		C416.2,1059.9,410.5,1049.7,404.9,1039.1z"/>
	<path class="st0" d="M765.1,1095c-5.3,4.5-10.4,5.8-17,2.7c-8.6-4.1-17.7-7.3-26.2-10.7c2.6-1.8,5.1-3.6,8.3-5.9
		C741.2,1085.4,753.1,1090.2,765.1,1095z"/>
	<path class="st0" d="M709.9,1111.7c-13.2,0.4-25.3,1.3-36.8-3.5c-6.2-2.6-7.7-6.1-4.8-10.6c0.6-0.9,2.3-1.8,3-1.6
		C683.9,1101.1,696.3,1106.2,709.9,1111.7z"/>
	<path class="st0" d="M405.8,961c4.6-11.7,12.9-15.8,26.9-13.4c-0.6,7.6-1.2,15.3-1.9,23c-0.1,0.8-1.3,1.5-1.9,2.2
		c-0.7-0.8-1.6-1.5-1.9-2.4c-0.8-2-1.1-4.2-1.8-6.2C420.9,953.7,414.6,952.4,405.8,961z"/>
	<path class="st0" d="M388.1,1008.2c-0.4-14.2,3.6-22,13-24.5c2,5.2,4,10.3,5.8,15C400.8,1001.8,394.5,1005,388.1,1008.2z"/>
	<path class="st0" d="M907.4,351.5c5.8-4.6,10.8-8.6,15.8-12.5c0.2,0.2,0.5,0.3,0.7,0.5c-2.3,5.1-4.7,10.2-7.2,15.7
		C913.6,354,910.9,352.9,907.4,351.5z"/>
	<path class="st0" d="M695.1,1073.9c9-0.1,16.1,4.1,22.1,10.9c-7.5-3.2-15-6.4-22.4-9.6C694.9,1074.8,695,1074.4,695.1,1073.9z"/>
	<path class="st0" d="M413.5,999.5c-2.3-5.8-4.7-11.6-7-17.3c0.4-0.2,0.8-0.4,1.2-0.6c2.1,2.8,3.8,5.9,6.3,8.2
		C417.7,993.2,414.5,996.3,413.5,999.5z"/>
	<path class="st0" d="M419.8,1000.4c2-3.9,3.8-6.8,5.1-10c1.2-3.1,1.9-6.4,2.8-9.6c0.5,0.1,1.1,0.3,1.6,0.4
		c-1.7,6.2-3.2,12.4-5.1,18.6C424,1000.3,421.6,1000.2,419.8,1000.4z"/>
	<path class="st0" d="M395.5,979.2c2.7-4.9,5-9.3,7.9-14.6C400.6,979.3,403.4,977.1,395.5,979.2z"/>
	<path class="st0" d="M1196.2,754.5c1.2,0.8,2.8,1.3,3.5,2.4c4.2,6.7,8.1,13.5,12.2,20.3c-0.3,0.3-0.6,0.7-0.9,1
		c-1.2-0.9-2.8-1.5-3.6-2.6c-4.1-6.6-8-13.3-12-20C1195.7,755.2,1195.9,754.8,1196.2,754.5z"/>
	<path class="st0" d="M721.4,774.2c-13.4-12.4-23.5-26-29.5-42.4c-9.7-26.6-7.1-53,2.4-78.8c5.1-13.7,12.1-26.7,18.2-39.9
		c-16.1,9.6-32.8,19.6-49.8,29.7c-2-4.7,0.5-6.3,3.2-8c19.5-12,39.1-23.9,58.5-36c2.4-1.5,7-2.5,4.4-6.6c-2.5-3.8-5.6-0.6-8.1,0.9
		c-17.2,10.4-34.2,21-51.4,31.4c-1.5,0.9-3.1,1.6-5.6,2.8c1.2-8.1,2.2-15.3,3.3-22.4c0.3-0.1,0.7-0.3,1-0.4
		c1.9,3.2,3.7,6.5,5.9,10.2c7.9-5,15.5-9.9,23.1-14.7s15.1-9.7,22.8-14.3c4.7-2.8,9.5-5.1,14.4,0.1c0.7,0.7,3.7-0.2,5.2-1
		c18.1-10.1,36.2-20.3,54.2-30.5c2.4-1.4,4.9-2.6,7.4-3.9c0.4,0.3,0.9,0.7,1.3,1c-0.9,1.4-1.5,3.4-2.8,4.1c-15.9,8.4-32,16.7-48,25
		c-3.4,1.7-6.7,3.7-10.3,5c-5.2,1.9-6.3,5.7-6,11.4c22.3-11.6,44.2-23,67-35c0,11.9,0.2,22.8-0.2,33.7c0,1.4-2.7,3-4.5,3.9
		c-27.4,13.8-54.8,27.6-82.4,41c-5.4,2.6-9,5.8-9.9,12.8c32.3-16.1,64.2-32,96.2-48c2.2,4.4,0.3,6.3-3.2,8
		c-29.7,14.2-59.4,28.5-89.1,42.7c-3.4,1.6-5.5,3.7-5.9,7.5c-4.2,39.3,5.3,74,33.7,102.5c2.3,2.3,4.4,3.1,7.5,1.8
		c1.8-0.7,3.9-0.9,5.9-0.8c4.1,0.2,8,1,8.7,6.2s-1.3,8.9-6.3,10.4c-11.9,3.6-23.8,6.8-35.7,10.2c-26,7.4-52.1,14.8-78.1,22.2
		c-0.5,0.1-0.9,0.1-1.4,0.1c-1.9-5.3-0.9-7.2,4.6-8.8c35.5-10.3,71.1-20.6,106.6-30.9c1.1-0.3,2.4-0.4,3.2-1.1
		c0.9-0.7,1.9-2.2,1.7-3.1c-0.2-0.9-1.9-1.7-3-1.9c-1.2-0.2-2.6,0.4-3.8,0.7c-34.3,9.8-68.6,19.6-102.9,29.4
		c-1.5,0.4-3.1,0.6-4.6,0.9c-0.3-0.6-0.5-1.2-0.8-1.7c1.5-0.9,2.9-2.1,4.5-2.6c24.5-7.4,49.1-14.6,73.6-21.9
		C717.9,775.4,719.2,774.9,721.4,774.2z"/>
	<path class="st0" d="M901.6,842.7c-29.7,4.7-58.2,9.2-87.7,13.9c0-7.8-0.1-14.9,0.2-22c0-1,2.1-2.4,3.4-2.7
		c20.6-4.5,41.3-8.8,62-13.1c4.2-0.9,8.4-2,12.6-2.5c1.3-0.2,3.7,0.8,4,1.7C898,825.9,899.7,834,901.6,842.7z"/>
	<path class="st0" d="M547.5,863.3c0.7-2.7,0.9-4.3,1.5-5.7c2.5-6.5,5.5-12.8,7.5-19.4c1.6-5.1,4.5-7.4,9.5-8.5
		c8.5-1.9,16.9-4.7,25.3-7c1.5-0.4,3.1-0.6,5.5-1.1c0,9.7,0.1,18.7-0.1,27.8c0,0.9-1.7,2.3-2.9,2.6
		C578.8,855.7,563.8,859.3,547.5,863.3z"/>
	<path class="st0" d="M631.3,646.1c10.7-27.4,21.4-54.9,32.1-82.4c0.8,0.5,1.3,0.7,1.3,0.8c-0.8,21.1,1.4,42.4-3.9,63.2
		c-0.3,1.3-1.2,2.9-2.3,3.6c-8.5,5.4-17.2,10.6-25.8,15.8C632.3,646.7,631.8,646.4,631.3,646.1z"/>
	<path class="st0" d="M801.5,794.8c1.9,6.4,1.2,7.7-4.6,9.1C744.2,816.4,691.6,829,639,841.5c-1.7,0.4-3.5,0.6-5.3,0.9
		c-0.3-0.4-0.6-0.9-1-1.3c1.2-0.8,2.2-2,3.5-2.4c15.4-4.2,30.9-8.3,46.4-12.4c38.6-10.3,77.1-20.6,115.7-31
		C799.3,795.1,800.2,795,801.5,794.8z"/>
	<path class="st0" d="M633.5,810.3c0.7,5.9-1.5,8.3-6.1,9.5c-7.9,2-8.3,3-4.6,10.4c1.4,2.9,3.4,5.7,5.2,8.4c2.1,3.2,1.5,5.2-2.3,6.1
		c-4.5,1-9,2.1-13.5,3.1c-2.7,0.6-4.4-0.1-4.3-3.5c0.2-7.6,0-15.3,0.1-22.9c0-1.4,0.9-3.7,1.9-4
		C617.5,814.9,625.2,812.7,633.5,810.3z"/>
	<path class="st0" d="M814.5,825.5c-1-3.8-0.3-5.1,2.8-5.8c24.1-5.4,48.1-11.1,72.2-16.6c4.8-1.1,4.7,1.9,4.3,5.7
		C867.4,814.3,841.1,819.8,814.5,825.5z"/>
	<path class="st0" d="M849,581.9c3,4.2,1.8,6.4-2.6,8.3c-9.2,4.1-18.2,8.7-27.3,13c-1.4,0.7-2.9,1.2-4.4,1.8c-0.5-0.3-0.9-0.7-1.4-1
		c0.9-1.9,1.2-4.9,2.7-5.7c9.5-5.2,19.3-9.9,29.1-14.7C846.4,583.1,847.8,582.5,849,581.9z"/>
	<path class="st0" d="M659.2,641.4c-0.9,1.8-1.3,4.2-2.8,5.2c-8.5,5.4-17.2,10.5-25.9,15.7c-1.7,1-3.4,1.9-5.1,2.8
		c-0.4-0.3-0.8-0.6-1.1-0.9c0.9-1.7,1.4-4.1,2.8-5.1c10-6.6,20.2-12.8,30.4-19.2C658.1,640.4,658.7,640.9,659.2,641.4z"/>
	<path class="st0" d="M596.9,814.7c-11.2,3.2-22.4,6.4-34.4,9.9C565,819.3,593,811,596.9,814.7z"/>
	<path class="st0" d="M627.7,851.1c0.1,4.4-0.6,6.6-4.7,7.1c-3.7,0.4-7.3,1.9-11.1,2.5c-1.2,0.2-2.6-1.1-3.9-1.7
		c0.8-1.3,1.3-3.4,2.4-3.7C615.9,853.6,621.5,852.5,627.7,851.1z"/>
	<path class="st0" d="M635.2,801.6c-0.7,0.8-1.2,2.2-2,2.4c-8.1,2.5-16.3,4.8-24.4,7.2c-0.3-0.9-0.6-1.8-0.8-2.8
		c8.3-3.8,17.4-5.7,26.2-8.2C634.4,800.7,634.8,801.2,635.2,801.6z"/>
	<path class="st0" d="M609.1,674.5c-1.6-4.3,2.7-8.4,11.2-10.6C620,669.1,617.6,671.5,609.1,674.5z"/>
	<path class="st0" d="M814.2,811.6c0-4.4,0-8.5,0-12.8C819.4,802.1,819.4,807.5,814.2,811.6z"/>
</g>
<path class="st1" d="M-1.1-1.2"/>
</svg>
