<?xml version="1.0" encoding="utf-8"?>
<!-- Generator: Adobe Illustrator 21.0.2, SVG Export Plug-In . SVG Version: 6.00 Build 0)  -->
<svg version="1.1" id="Layer_1" xmlns="http://www.w3.org/2000/svg" xmlns:xlink="http://www.w3.org/1999/xlink" x="0px" y="0px"
	 viewBox="0 0 231 122.5" style="enable-background:new 0 0 231 122.5;" xml:space="preserve">
<style type="text/css">
	.st0{fill:#FFFFFF;}
</style>
<path class="st0" d="M37.7,69.9c0.3,0.3,0.4,0.7,0.4,1c0.3,4.3,0.9,14.4,5.3,28h-8.6c-0.6,0-1-0.3-1.1-0.9c-1-3.1-4.9-14.7-5.4-29.3
	l-2.7-2.6l2.7-2.6c0.5-14.6,4.4-26.2,5.4-29.3c0.2-0.6,0.5-0.9,1.1-0.9h8.6c-4.3,13.6-5,23.7-5.3,28c0,0.3-0.1,0.8-0.4,1l-4.2,3.7
	L37.7,69.9z M80.8,35.1c10.5,0,19.1,4.7,19.1,15c0,7.2-3.4,12-10.4,13.7c8.6,1.3,14.3,7.2,14.3,15c0,15.7-12.4,18.2-23.8,18.2H62.5
	v-62H80.8z M76.6,60.9c7.8,0,13.7-1.3,13.7-9.3c0-7.2-6-8.5-11.7-8.5h-6.7v17.8H76.6z M77.9,68.7h-6v20.6h7.5
	c8.4,0,14.4-1.3,14.4-10.4C93.8,69.5,85.4,68.7,77.9,68.7z M121.6,48.4c0.7,1.6,1,3.8,1,6.8c2.9-5,8.5-7.8,15.3-7.8
	c5.3,0,9.3,1.8,12,4.8c2.6,2.9,4,7,4,15.3v29.6h-9.3V69.5c0-6.4-0.8-9.1-2.4-11c-1.6-1.7-4-2.9-7.2-2.9c-3.7,0-6.9,1.6-9,4.8
	c-1.7,2.5-2.8,5.8-2.8,13.2v23.5h-9.3V63c0-4.8-0.2-11.7-1.6-14.6L121.6,48.4L121.6,48.4z M199,61.3v8.3h-23.3v27.6h-9.9v-62h35.4
	v8.2h-25.9v18H199z"/>
</svg>
